<svg id="svg" version="1.1" xmlns="http://www.w3.org/2000/svg" xmlns:xlink="http://www.w3.org/1999/xlink" width="400" height="400" viewBox="0, 0, 400,400"><g id="svgg"><path id="path0" d="M198.295 58.375 C 189.008 74.851,182.449 94.505,180.093 112.917 C 179.030 121.220,178.876 132.749,179.674 144.250 C 180.000 148.945,180.521 153.931,180.745 154.500 C 180.872 154.821,181.101 156.133,181.256 157.417 C 182.118 164.582,183.689 172.422,185.578 178.983 C 185.906 180.120,186.133 181.178,186.083 181.334 C 185.822 182.157,188.791 189.445,190.788 192.881 L 191.444 194.011 192.747 191.131 C 195.407 185.246,196.154 184.020,197.493 183.337 L 198.092 183.031 197.938 181.224 C 197.695 178.380,197.715 161.899,197.965 158.500 C 198.697 148.545,200.160 145.575,201.239 151.847 C 202.037 156.482,202.463 175.854,201.885 181.250 C 201.717 182.828,201.725 182.930,202.037 183.167 C 203.789 184.495,204.618 185.863,207.170 191.638 L 208.225 194.027 208.624 193.388 C 213.311 185.875,217.219 171.132,219.152 153.667 C 222.586 122.639,219.931 101.067,209.484 75.138 C 206.940 68.823,200.460 55.833,199.854 55.833 C 199.784 55.833,199.083 56.977,198.295 58.375 M202.385 91.373 C 206.015 93.064,207.092 97.700,204.570 100.778 C 201.299 104.769,194.880 103.166,193.835 98.097 C 192.843 93.287,197.921 89.294,202.385 91.373 M204.754 98.821 C 204.590 99.337,203.151 100.750,202.399 101.133 C 199.825 102.446,197.083 101.678,195.076 99.083 C 194.915 98.875,194.942 99.004,195.147 99.428 C 196.557 102.336,200.986 103.056,203.457 100.779 C 204.192 100.101,205.118 98.729,204.952 98.563 C 204.904 98.515,204.814 98.631,204.754 98.821 M198.609 196.917 C 196.583 206.279,190.197 211.734,181.250 211.742 C 177.499 211.746,176.986 211.604,170.833 208.874 C 161.485 204.725,146.684 202.335,141.756 204.179 C 137.440 205.793,134.855 210.621,135.910 215.095 C 137.557 222.076,141.686 230.514,146.854 237.458 C 148.650 239.872,148.811 240.031,148.337 238.925 C 144.442 229.838,149.645 219.988,159.384 218.011 C 173.263 215.193,189.397 217.516,201.833 224.123 C 207.040 226.889,207.490 227.053,209.917 227.056 C 213.117 227.060,216.619 225.060,217.926 222.482 C 220.197 218.000,225.267 217.385,229.190 221.116 C 233.075 224.810,236.684 226.489,241.858 227.009 C 251.082 227.936,260.766 221.263,262.672 212.667 C 264.411 204.825,264.012 204.006,258.277 203.655 C 247.397 202.989,235.592 205.514,225.212 210.727 C 214.284 216.216,201.051 209.625,198.933 197.640 C 198.750 196.601,198.701 196.492,198.609 196.917 M207.583 233.599 C 193.856 234.653,182.794 238.574,173.000 245.860 C 168.578 249.148,162.038 249.887,157.027 247.664 L 155.917 247.171 156.702 247.898 C 157.133 248.298,158.376 249.303,159.463 250.132 C 179.419 265.341,206.525 267.736,228.861 256.262 L 230.583 255.378 231.113 254.147 C 234.425 246.454,229.886 236.938,221.750 234.518 C 219.618 233.884,211.083 233.330,207.583 233.599 M195.237 270.570 C 194.244 271.002,194.081 272.480,194.952 273.165 C 195.581 273.659,196.816 273.625,197.386 273.098 C 198.895 271.699,197.206 269.712,195.237 270.570 M242.000 277.917 L 242.000 285.000 243.417 285.000 L 244.833 285.000 244.833 283.746 C 244.833 282.509,244.842 282.483,245.521 281.746 C 246.396 280.797,246.165 280.683,248.063 283.000 L 249.701 285.000 251.454 285.000 C 252.833 285.000,253.173 284.955,253.044 284.792 C 252.954 284.677,251.898 283.353,250.696 281.849 L 248.510 279.116 250.449 277.099 C 252.784 274.671,252.528 274.784,253.042 275.953 C 256.797 284.490,257.019 285.053,256.817 285.539 C 256.430 286.473,254.909 286.852,254.026 286.233 C 253.817 286.086,253.625 285.992,253.600 286.025 C 253.575 286.057,253.317 286.506,253.026 287.022 L 252.498 287.960 252.874 288.203 C 254.003 288.930,255.858 289.047,257.189 288.474 C 258.652 287.845,258.679 287.795,262.421 278.833 C 263.129 277.137,263.813 275.506,263.940 275.208 L 264.171 274.667 262.781 274.667 L 261.392 274.667 260.013 278.042 C 259.254 279.898,258.578 281.476,258.509 281.549 C 258.441 281.622,258.068 280.909,257.680 279.966 C 257.292 279.022,256.636 277.444,256.222 276.458 L 255.469 274.667 252.943 274.669 C 249.192 274.671,249.479 274.564,247.093 276.856 C 245.962 277.944,244.990 278.833,244.935 278.833 C 244.879 278.833,244.833 277.033,244.833 274.833 L 244.833 270.833 243.417 270.833 L 242.000 270.833 242.000 277.917 M206.206 278.535 L 206.250 285.250 207.583 285.305 C 208.317 285.335,210.510 285.308,212.458 285.245 L 216.000 285.130 216.000 283.985 L 216.000 282.840 212.625 282.795 L 209.250 282.750 209.167 277.333 L 209.083 271.917 207.623 271.868 L 206.163 271.820 206.206 278.535 M136.440 272.708 C 136.161 273.154,132.780 278.943,132.206 279.958 C 131.654 280.933,131.769 281.044,129.541 277.375 C 128.441 275.565,127.326 273.729,127.062 273.297 L 126.583 272.511 125.292 272.505 L 124.000 272.500 124.000 274.542 C 124.001 275.665,124.050 278.665,124.110 281.208 L 124.220 285.833 125.628 285.833 L 127.035 285.833 126.913 282.000 C 126.832 279.449,126.847 278.167,126.959 278.167 C 127.052 278.167,127.980 279.551,129.022 281.242 L 130.917 284.317 131.667 284.323 L 132.417 284.329 132.981 283.290 C 133.291 282.718,134.153 281.237,134.897 280.000 L 136.250 277.750 136.295 281.708 L 136.339 285.667 137.753 285.667 L 139.167 285.667 139.164 279.375 C 139.162 271.741,139.275 272.333,137.818 272.333 C 136.813 272.333,136.646 272.379,136.440 272.708 M154.333 274.417 L 154.333 275.667 153.583 275.667 L 152.833 275.667 152.833 276.741 L 152.833 277.815 153.625 277.866 L 154.417 277.917 154.500 280.847 C 154.591 284.036,154.737 284.493,155.919 285.267 C 156.903 285.912,159.946 285.922,160.471 285.283 C 160.705 284.999,159.961 283.225,159.649 283.321 C 157.708 283.917,157.333 283.417,157.333 280.228 L 157.333 277.833 158.583 277.833 L 159.833 277.833 159.833 276.750 L 159.833 275.667 158.583 275.667 L 157.333 275.667 157.333 274.417 L 157.333 273.167 155.833 273.167 L 154.333 273.167 154.333 274.417 M234.083 274.891 C 227.783 276.532,228.983 285.150,235.518 285.193 C 237.270 285.204,238.330 284.832,239.355 283.843 C 240.382 282.853,240.377 282.816,239.125 282.109 L 238.083 281.522 237.450 282.136 C 236.055 283.489,233.483 282.792,232.980 280.924 C 232.150 277.844,235.764 275.654,237.702 278.063 L 237.987 278.417 239.076 277.833 C 240.362 277.145,240.350 277.191,239.496 276.265 C 238.297 274.964,236.021 274.386,234.083 274.891 M225.216 274.947 C 224.851 275.021,224.848 275.048,224.882 278.052 C 224.926 281.940,224.475 282.832,222.466 282.833 C 220.677 282.834,220.333 282.059,220.333 278.031 L 220.333 275.000 218.905 275.000 L 217.477 275.000 217.530 278.714 C 217.582 282.311,217.597 282.453,218.007 283.255 C 219.093 285.378,222.337 286.010,224.386 284.499 L 225.083 283.984 225.135 284.575 L 225.187 285.167 226.512 285.167 L 227.838 285.167 227.794 280.042 L 227.750 274.917 226.667 274.894 C 226.071 274.882,225.418 274.906,225.216 274.947 M179.721 275.172 C 178.915 275.334,178.152 275.699,177.842 276.072 C 177.512 276.470,177.333 276.386,177.333 275.833 L 177.333 275.333 176.000 275.333 L 174.667 275.333 174.667 280.417 L 174.667 285.500 176.083 285.500 L 177.500 285.500 177.500 282.458 C 177.501 279.130,177.618 278.615,178.524 277.951 C 179.120 277.514,180.546 277.506,181.023 277.937 C 181.688 278.539,181.748 278.856,181.833 282.167 L 181.917 285.417 183.333 285.417 L 184.750 285.417 184.833 282.159 C 184.938 278.058,185.370 277.282,187.394 277.554 C 188.877 277.753,189.157 278.556,189.163 282.625 L 189.167 285.500 190.595 285.500 L 192.023 285.500 191.970 281.708 C 191.919 278.105,191.897 277.880,191.526 277.185 C 190.257 274.806,187.112 274.289,184.773 276.074 L 184.033 276.640 183.662 276.245 C 182.849 275.379,181.085 274.899,179.721 275.172 M164.900 275.497 C 160.555 276.921,160.052 283.118,164.120 285.109 C 166.979 286.507,170.679 285.424,171.987 282.806 C 174.173 278.431,169.778 273.898,164.900 275.497 M194.774 275.295 C 194.730 275.365,194.737 277.653,194.790 280.378 L 194.884 285.333 196.276 285.333 L 197.667 285.333 197.667 280.250 L 197.667 275.167 196.260 275.167 C 195.486 275.167,194.817 275.224,194.774 275.295 M144.529 275.501 C 143.764 275.663,142.000 276.415,142.000 276.580 C 142.000 276.667,142.816 278.350,142.912 278.462 C 142.934 278.487,143.356 278.319,143.851 278.089 C 145.521 277.311,147.523 277.582,148.081 278.661 C 148.606 279.678,148.321 279.833,145.926 279.833 C 142.200 279.833,140.319 282.341,142.289 284.683 C 143.492 286.112,147.047 286.270,148.145 284.943 C 148.487 284.530,148.667 284.607,148.667 285.167 L 148.667 285.667 150.021 285.667 L 151.375 285.667 151.289 282.208 C 151.197 278.546,151.103 277.990,150.399 276.975 C 149.503 275.682,146.839 275.013,144.529 275.501 M168.099 277.817 C 169.947 278.656,170.152 281.663,168.446 282.907 C 167.775 283.397,166.049 283.392,165.387 282.899 C 162.656 280.863,165.026 276.422,168.099 277.817 M275.167 278.149 C 275.167 278.465,275.547 278.731,275.734 278.544 C 275.973 278.305,275.818 277.833,275.500 277.833 C 275.284 277.833,275.167 277.944,275.167 278.149 M148.301 282.033 C 148.439 283.688,145.821 284.693,144.708 283.413 C 143.638 282.182,144.879 281.311,147.583 281.396 C 148.227 281.416,148.252 281.438,148.301 282.033 " stroke="none" fill="#040404" fill-rule="evenodd"></path><path id="path1" d="M0.000 200.000 L 0.000 400.000 200.000 400.000 L 400.000 400.000 400.000 200.000 L 400.000 0.000 200.000 0.000 L 0.000 0.000 0.000 200.000 M200.702 56.875 C 203.179 60.810,206.414 67.420,209.764 75.394 C 211.454 79.417,214.465 88.135,215.412 91.750 C 217.588 100.053,218.087 102.216,218.827 106.551 C 219.314 109.401,219.955 114.719,220.367 119.333 C 220.643 122.421,220.644 136.240,220.368 140.500 C 220.080 144.948,219.691 149.894,219.417 152.599 L 219.179 154.949 220.440 156.849 C 227.213 167.053,229.550 181.999,226.494 195.556 C 226.008 197.710,225.518 199.407,225.413 199.301 C 225.383 199.272,225.012 198.350,224.587 197.252 C 223.733 195.041,221.899 191.295,220.915 189.750 C 218.650 186.194,214.011 181.078,213.762 181.863 C 211.661 188.512,207.833 196.006,207.833 193.470 C 207.833 193.034,203.738 184.835,203.283 184.361 C 202.782 183.838,201.868 183.244,201.748 183.363 C 201.719 183.392,201.573 184.353,201.424 185.497 C 200.542 192.279,199.122 191.723,198.557 184.375 C 198.498 183.619,198.434 183.000,198.413 183.000 C 197.043 183.000,194.853 186.442,191.944 193.163 L 191.476 194.244 191.169 193.836 C 190.179 192.524,188.085 187.937,186.505 183.618 L 185.725 181.486 184.654 182.424 C 180.710 185.878,176.884 191.742,174.730 197.631 C 174.005 199.616,174.027 199.626,173.333 196.965 C 169.702 183.035,172.010 167.353,179.298 156.431 L 180.513 154.610 180.176 151.180 C 177.425 123.147,179.513 103.859,187.755 81.167 C 190.900 72.508,195.254 63.050,198.823 57.125 C 199.880 55.371,199.765 55.386,200.702 56.875 M198.155 91.217 C 193.059 92.663,192.384 99.865,197.125 102.200 C 201.226 104.219,205.771 101.380,205.736 96.822 C 205.706 92.923,201.944 90.142,198.155 91.217 M205.347 97.586 C 204.491 102.218,198.969 103.965,195.856 100.589 C 195.058 99.722,194.337 98.319,194.335 97.625 C 194.333 97.001,194.601 97.045,194.729 97.688 C 195.723 102.658,203.565 102.778,204.932 97.844 C 205.297 96.529,205.330 96.442,205.432 96.543 C 205.482 96.593,205.444 97.063,205.347 97.586 M198.045 160.500 C 198.045 160.912,198.078 161.081,198.118 160.875 C 198.157 160.669,198.157 160.331,198.118 160.125 C 198.078 159.919,198.045 160.087,198.045 160.500 M197.898 165.417 C 197.898 166.608,197.925 167.074,197.957 166.451 C 197.989 165.829,197.989 164.854,197.957 164.285 C 197.924 163.716,197.898 164.225,197.898 165.417 M197.905 173.000 C 197.905 175.063,197.929 175.906,197.958 174.875 C 197.987 173.844,197.987 172.156,197.958 171.125 C 197.929 170.094,197.905 170.938,197.905 173.000 M198.058 178.833 C 198.058 179.612,198.087 179.931,198.122 179.542 C 198.157 179.152,198.157 178.515,198.122 178.125 C 198.087 177.735,198.058 178.054,198.058 178.833 M198.217 181.833 C 198.217 182.338,198.248 182.544,198.286 182.292 C 198.324 182.040,198.324 181.627,198.286 181.375 C 198.248 181.123,198.217 181.329,198.217 181.833 M199.566 199.667 C 200.464 203.197,203.399 207.141,206.819 209.413 C 212.705 213.323,219.103 213.605,225.833 210.252 C 230.143 208.105,236.857 205.698,240.500 204.996 C 246.913 203.758,248.619 203.594,255.095 203.588 L 260.940 203.583 261.925 204.087 C 263.274 204.777,263.660 205.465,263.664 207.187 C 263.670 209.863,262.753 213.845,261.621 216.063 C 255.273 228.498,238.910 231.087,229.066 221.214 C 225.506 217.644,220.643 218.119,218.255 222.271 C 216.450 225.409,213.364 227.224,209.833 227.224 C 207.678 227.224,206.795 226.932,203.333 225.076 C 189.778 217.809,175.291 215.424,160.402 218.010 C 154.607 219.016,150.640 221.899,148.415 226.721 C 146.813 230.192,146.890 235.825,148.586 239.171 C 149.306 240.593,149.013 240.435,147.504 238.588 C 142.020 231.876,136.084 219.453,135.575 213.623 C 135.268 210.108,137.341 206.315,140.500 204.609 C 142.419 203.572,143.245 203.447,147.417 203.558 C 156.547 203.801,164.497 205.728,173.653 209.917 C 184.604 214.928,197.262 208.142,198.420 196.641 C 198.591 194.940,198.700 194.976,199.004 196.833 C 199.162 197.796,199.415 199.071,199.566 199.667 M218.481 233.750 C 228.216 234.927,234.058 243.103,231.834 252.439 C 231.201 255.093,231.079 255.247,228.583 256.535 C 205.522 268.439,176.796 265.129,156.875 248.271 C 155.218 246.869,155.164 246.702,156.578 247.343 C 162.085 249.840,168.341 249.124,173.328 245.424 C 185.530 236.375,202.948 231.871,218.481 233.750 M283.359 270.240 C 283.508 270.567,283.483 270.772,283.231 271.282 C 282.927 271.895,282.927 271.927,283.219 272.219 C 283.439 272.439,283.492 272.656,283.414 273.011 C 283.261 273.709,283.382 273.645,284.857 272.258 C 285.665 271.498,286.601 270.807,287.267 270.479 C 290.026 269.121,292.589 270.014,291.346 271.900 C 291.031 272.378,291.031 272.389,291.368 272.845 C 291.824 273.461,291.662 274.064,290.829 274.857 C 290.253 275.405,290.193 275.535,290.279 276.064 C 290.383 276.705,289.525 277.833,288.933 277.833 C 288.743 277.833,288.667 277.990,288.667 278.385 C 288.667 279.091,288.428 279.398,287.500 279.883 C 286.040 280.645,286.322 281.084,288.284 281.102 C 289.995 281.118,290.928 281.356,291.844 282.008 C 292.530 282.496,292.460 282.730,291.458 283.295 C 290.469 283.854,289.299 285.044,288.884 285.915 C 288.457 286.810,287.485 286.659,285.864 285.445 L 285.311 285.031 284.031 285.498 C 278.554 287.495,274.927 285.721,273.986 280.583 C 273.693 278.984,272.667 278.410,272.667 279.846 C 272.667 280.976,272.099 280.686,272.032 279.522 C 271.991 278.804,271.918 278.614,271.657 278.546 C 271.221 278.432,271.246 277.923,271.698 277.722 C 272.117 277.535,272.618 275.642,272.281 275.517 C 271.829 275.349,271.333 274.648,271.333 274.174 C 271.333 273.504,271.718 273.508,272.350 274.184 C 272.690 274.548,272.833 274.623,272.833 274.434 C 272.833 274.287,272.770 274.167,272.693 274.167 C 272.478 274.167,272.167 273.374,272.167 272.825 C 272.167 272.243,272.419 272.199,272.942 272.691 L 273.323 273.049 273.487 272.616 C 273.740 271.952,274.847 271.359,275.301 271.644 C 275.632 271.853,275.228 273.261,274.722 273.659 L 274.318 273.976 274.783 274.030 C 275.875 274.156,275.038 275.167,273.842 275.167 C 273.562 275.167,273.333 275.227,273.333 275.300 C 273.333 275.373,273.597 275.402,273.919 275.365 C 274.577 275.288,275.101 275.594,274.843 275.904 C 274.724 276.049,274.945 276.083,275.716 276.038 C 276.518 275.992,276.897 276.055,277.405 276.320 C 277.766 276.508,278.070 276.644,278.082 276.622 C 278.094 276.601,278.186 276.076,278.287 275.456 C 278.825 272.160,282.508 268.372,283.359 270.240 M197.296 270.501 C 198.892 271.474,198.090 273.667,196.137 273.667 C 195.407 273.667,195.227 273.594,194.733 273.100 C 193.571 271.937,194.436 270.168,196.167 270.168 C 196.487 270.168,196.996 270.318,197.296 270.501 M281.605 270.963 C 280.490 271.794,279.167 273.898,279.167 274.840 C 279.167 275.165,281.880 275.021,282.333 274.671 C 282.745 274.354,282.746 274.347,282.417 274.104 C 282.095 273.866,282.093 273.841,282.375 273.362 C 282.732 272.754,282.737 272.667,282.411 272.667 C 281.963 272.667,281.960 272.210,282.403 271.455 C 283.063 270.328,282.731 270.123,281.605 270.963 M245.000 274.667 L 245.083 278.583 246.583 277.178 C 247.408 276.405,248.316 275.523,248.601 275.216 L 249.119 274.660 252.332 274.621 L 255.544 274.583 256.970 277.875 C 257.754 279.685,258.439 281.167,258.491 281.167 C 258.544 281.167,259.186 279.695,259.919 277.897 C 260.651 276.099,261.331 274.595,261.431 274.556 C 261.530 274.518,262.216 274.508,262.955 274.534 L 264.298 274.583 263.641 276.250 C 261.152 282.567,259.093 287.096,258.403 287.773 C 257.111 289.040,254.859 289.363,253.203 288.519 C 252.374 288.096,252.372 288.078,252.939 286.813 C 253.407 285.771,253.512 285.709,254.167 286.083 C 254.937 286.524,255.911 286.404,256.413 285.807 C 256.975 285.140,257.042 285.373,254.862 280.475 C 253.869 278.243,252.959 276.173,252.841 275.875 C 252.523 275.072,252.658 274.991,250.375 277.343 L 248.667 279.102 249.551 280.176 C 250.878 281.787,253.333 284.966,253.333 285.073 C 253.333 285.425,249.525 285.147,249.283 284.777 C 249.143 284.563,248.431 283.669,247.701 282.792 L 246.375 281.195 245.687 281.896 C 245.002 282.594,245.000 282.600,245.000 283.881 L 245.000 285.167 243.442 285.167 L 241.883 285.167 241.792 278.042 C 241.742 274.123,241.737 270.858,241.781 270.786 C 241.825 270.714,242.548 270.676,243.389 270.702 L 244.917 270.750 245.000 274.667 M209.333 277.250 L 209.333 282.667 212.649 282.667 C 216.430 282.667,216.167 282.549,216.167 284.245 L 216.167 285.295 211.454 285.417 C 208.863 285.484,206.594 285.510,206.413 285.476 C 206.092 285.414,206.082 285.235,206.040 278.623 L 205.996 271.833 207.665 271.833 L 209.333 271.833 209.333 277.250 M285.833 272.437 C 285.128 272.908,283.693 274.352,282.541 275.750 C 279.864 278.999,279.415 279.274,278.595 278.165 C 277.468 276.641,276.014 276.227,274.452 276.983 C 273.509 277.439,273.354 278.221,274.054 278.991 C 274.323 279.288,274.501 279.791,274.641 280.652 C 275.377 285.188,279.075 286.838,283.953 284.808 C 284.884 284.420,285.315 284.324,285.755 284.407 L 286.333 284.515 286.333 283.341 C 286.333 282.053,286.431 282.150,285.087 282.105 C 284.123 282.073,284.095 281.622,285.032 281.191 L 285.750 280.861 284.969 280.847 C 283.491 280.821,282.590 279.987,283.918 279.874 C 286.194 279.680,287.073 279.068,285.675 278.650 C 284.571 278.319,284.706 277.500,285.865 277.500 C 286.347 277.500,286.567 276.831,286.167 276.583 C 285.947 276.447,285.952 275.711,286.173 275.637 C 286.282 275.601,286.328 274.944,286.298 273.869 L 286.250 272.159 285.833 272.437 M127.509 273.782 C 127.980 274.579,128.869 276.022,129.485 276.990 C 130.100 277.958,130.824 279.144,131.094 279.625 C 131.711 280.728,131.625 280.762,132.582 279.042 C 133.029 278.240,134.095 276.402,134.952 274.958 L 136.510 272.333 137.923 272.333 L 139.337 272.333 139.294 279.125 L 139.250 285.917 137.792 285.965 L 136.333 286.013 136.333 284.866 C 136.333 284.236,136.284 282.476,136.224 280.955 L 136.115 278.190 135.055 280.036 C 134.473 281.051,133.640 282.469,133.206 283.187 L 132.417 284.491 131.647 284.496 L 130.877 284.500 129.964 283.042 C 129.461 282.240,128.645 280.908,128.150 280.083 L 127.250 278.583 127.167 282.250 L 127.083 285.917 125.542 285.965 L 124.000 286.013 124.000 279.173 L 124.000 272.333 125.327 272.333 L 126.654 272.333 127.509 273.782 M157.466 274.292 L 157.515 275.500 158.757 275.500 L 160.000 275.500 160.000 276.750 L 160.000 278.000 158.750 278.000 L 157.500 278.000 157.500 280.296 C 157.500 283.220,158.088 284.011,159.642 283.180 C 160.017 282.979,160.823 284.881,160.548 285.318 C 159.895 286.353,156.536 286.123,155.345 284.963 C 154.492 284.132,154.366 283.647,154.236 280.697 L 154.117 278.000 153.392 278.000 L 152.667 278.000 152.667 276.750 L 152.667 275.500 153.417 275.500 L 154.167 275.500 154.167 274.244 L 154.167 272.988 155.792 273.036 L 157.417 273.083 157.466 274.292 M238.048 275.064 C 239.073 275.555,239.283 275.721,239.882 276.516 C 240.468 277.294,240.498 277.225,239.276 277.909 C 237.995 278.624,237.920 278.629,237.400 278.011 C 235.885 276.210,233.000 277.539,233.000 280.039 C 233.000 282.512,236.201 283.683,237.624 281.729 L 237.950 281.283 239.141 281.926 C 240.567 282.696,240.579 282.776,239.457 283.898 C 236.463 286.892,230.586 285.125,229.862 281.012 C 229.079 276.569,233.891 273.073,238.048 275.064 M227.890 276.542 C 227.950 277.573,227.999 279.973,227.999 281.875 L 228.000 285.333 226.500 285.333 L 225.000 285.333 225.000 284.833 C 225.000 284.229,225.001 284.229,224.238 284.748 C 222.136 286.174,218.914 285.452,217.822 283.310 C 217.359 282.403,217.146 280.374,217.202 277.417 L 217.250 274.917 218.736 274.868 C 220.601 274.807,220.494 274.605,220.497 278.217 C 220.501 281.971,220.796 282.667,222.387 282.667 C 224.303 282.667,224.565 282.150,224.667 278.167 L 224.750 274.917 225.583 274.818 C 226.042 274.764,226.724 274.707,227.100 274.693 L 227.782 274.667 227.890 276.542 M189.742 275.257 C 191.687 276.070,192.047 277.053,192.134 281.781 L 192.202 285.478 191.643 285.583 C 191.335 285.640,190.633 285.664,190.083 285.635 L 189.083 285.583 188.999 282.333 C 188.892 278.182,188.470 277.354,186.662 277.751 C 185.153 278.082,184.791 279.056,184.836 282.657 C 184.854 284.083,184.861 285.347,184.851 285.465 C 184.838 285.627,184.456 285.667,183.292 285.631 L 181.750 285.583 181.667 282.250 C 181.564 278.146,181.434 277.833,179.828 277.833 C 178.018 277.833,177.667 278.620,177.667 282.670 L 177.667 285.667 176.083 285.667 L 174.500 285.667 174.469 280.917 C 174.452 278.304,174.433 275.960,174.427 275.708 L 174.417 275.250 175.958 275.202 L 177.500 275.154 177.500 275.689 L 177.500 276.225 177.880 275.868 C 179.205 274.623,182.519 274.777,183.731 276.139 L 184.045 276.492 184.542 276.073 C 185.940 274.897,188.077 274.562,189.742 275.257 M169.173 275.431 C 172.760 276.828,173.826 281.293,171.254 284.140 C 168.575 287.105,162.635 286.000,161.409 282.309 C 159.898 277.762,164.559 273.633,169.173 275.431 M197.833 280.250 L 197.833 285.500 196.268 285.500 L 194.702 285.500 194.632 280.375 C 194.594 277.556,194.590 275.194,194.624 275.125 C 194.658 275.056,195.394 275.000,196.260 275.000 L 197.833 275.000 197.833 280.250 M148.661 275.581 C 150.978 276.399,151.409 277.430,151.413 282.167 L 151.417 285.750 149.958 285.798 L 148.500 285.846 148.500 285.311 L 148.500 284.775 148.123 285.130 C 145.895 287.222,141.422 285.700,141.422 282.849 C 141.422 280.706,142.756 279.812,146.125 279.696 C 148.012 279.632,148.167 279.602,148.167 279.302 C 148.167 277.909,146.030 277.382,143.917 278.254 C 142.787 278.719,142.808 278.729,142.142 277.442 C 141.720 276.627,141.817 276.395,142.759 275.979 C 144.592 275.168,147.025 275.004,148.661 275.581 M272.905 276.703 C 272.759 277.163,272.866 277.194,273.394 276.848 L 273.858 276.544 273.433 276.462 C 273.115 276.402,272.981 276.463,272.905 276.703 M276.343 277.307 C 276.811 277.687,276.849 278.523,276.419 278.998 C 275.731 279.758,274.333 279.201,274.333 278.167 C 274.333 277.152,275.523 276.643,276.343 277.307 M275.037 277.593 C 274.582 277.912,274.562 278.354,274.986 278.738 C 275.742 279.422,276.771 278.427,276.088 277.672 C 275.720 277.265,275.525 277.251,275.037 277.593 M275.736 277.601 C 276.132 277.753,276.080 278.619,275.668 278.750 C 275.058 278.943,274.649 278.208,275.110 277.747 C 275.393 277.464,275.385 277.466,275.736 277.601 M165.917 277.893 C 163.312 279.098,164.084 283.165,166.917 283.165 C 168.484 283.165,169.375 282.209,169.399 280.500 C 169.428 278.485,167.598 277.115,165.917 277.893 M145.597 281.664 C 143.836 282.003,144.301 283.835,146.147 283.832 C 147.378 283.830,148.314 283.026,148.327 281.958 C 148.334 281.459,147.260 281.344,145.597 281.664 " stroke="none" fill="#fbfbfb" fill-rule="evenodd"></path><path id="path2" d="M205.279 96.625 C 205.239 96.694,205.159 97.013,205.102 97.333 C 205.007 97.869,205.014 97.883,205.189 97.500 C 205.449 96.930,205.524 96.210,205.279 96.625 M199.458 101.618 C 199.665 101.657,200.002 101.657,200.208 101.618 C 200.415 101.578,200.246 101.545,199.833 101.545 C 199.421 101.545,199.252 101.578,199.458 101.618 M199.646 149.125 C 198.885 151.073,198.292 155.286,198.081 160.250 C 197.914 164.154,197.904 177.500,198.067 177.500 C 198.154 177.500,198.174 178.327,198.114 179.458 C 198.041 180.831,198.061 181.342,198.182 181.167 C 198.307 180.986,198.337 181.205,198.292 181.958 C 198.257 182.531,198.290 183.000,198.364 183.000 C 198.439 183.000,198.501 183.319,198.503 183.708 C 198.510 185.419,199.292 189.632,199.691 190.113 C 200.282 190.825,200.713 189.968,201.153 187.203 C 201.690 183.834,201.770 183.173,201.648 183.128 C 201.583 183.103,201.600 182.333,201.686 181.417 C 202.792 169.647,201.238 145.049,199.646 149.125 M179.802 155.669 C 172.186 166.353,169.621 182.723,173.333 196.965 C 174.027 199.626,174.005 199.616,174.730 197.631 C 176.887 191.732,180.717 185.867,184.667 182.414 C 186.114 181.149,186.087 181.248,185.508 179.379 C 184.176 175.077,182.090 164.999,181.255 158.833 C 181.013 157.046,180.760 155.360,180.693 155.086 L 180.572 154.589 179.802 155.669 M219.054 155.292 C 219.095 155.360,219.068 155.867,218.995 156.417 C 218.922 156.967,218.814 157.867,218.756 158.417 C 218.138 164.269,214.862 179.579,213.806 181.551 C 213.683 181.781,213.686 181.841,213.815 181.761 C 214.053 181.614,216.909 184.380,218.278 186.083 C 220.753 189.164,222.996 193.133,224.587 197.252 C 225.012 198.350,225.383 199.272,225.413 199.301 C 225.518 199.407,226.008 197.710,226.494 195.556 C 228.722 185.673,228.099 174.642,224.801 165.583 C 223.495 161.995,219.799 155.167,219.163 155.167 C 219.063 155.167,219.014 155.223,219.054 155.292 M198.622 195.267 C 198.555 195.334,198.500 195.504,198.500 195.644 C 198.500 195.832,198.549 195.851,198.685 195.715 C 198.787 195.613,198.842 195.443,198.807 195.338 C 198.772 195.232,198.688 195.201,198.622 195.267 M193.328 206.792 L 192.417 207.750 193.375 206.839 C 194.265 205.993,194.410 205.833,194.286 205.833 C 194.260 205.833,193.829 206.265,193.328 206.792 M180.621 211.787 C 180.917 211.824,181.442 211.824,181.788 211.788 C 182.134 211.752,181.892 211.722,181.250 211.721 C 180.608 211.721,180.325 211.750,180.621 211.787 M216.292 212.622 C 216.681 212.657,217.319 212.657,217.708 212.622 C 218.098 212.587,217.779 212.558,217.000 212.558 C 216.221 212.558,215.902 212.587,216.292 212.622 M216.575 224.375 L 215.917 225.083 216.625 224.425 C 217.015 224.062,217.333 223.743,217.333 223.716 C 217.333 223.590,217.188 223.716,216.575 224.375 M209.458 227.284 C 209.665 227.324,210.002 227.324,210.208 227.284 C 210.415 227.245,210.246 227.212,209.833 227.212 C 209.421 227.212,209.252 227.245,209.458 227.284 M242.955 227.287 C 243.250 227.324,243.775 227.324,244.121 227.288 C 244.467 227.252,244.225 227.222,243.583 227.221 C 242.942 227.221,242.659 227.250,242.955 227.287 M147.209 231.083 C 147.211 231.450,147.245 231.580,147.285 231.373 C 147.324 231.166,147.323 230.866,147.281 230.706 C 147.239 230.547,147.207 230.717,147.209 231.083 M208.292 233.455 C 208.681 233.490,209.319 233.490,209.708 233.455 C 210.098 233.420,209.779 233.392,209.000 233.392 C 208.221 233.392,207.902 233.420,208.292 233.455 M212.292 233.455 C 212.681 233.490,213.319 233.490,213.708 233.455 C 214.098 233.420,213.779 233.392,213.000 233.392 C 212.221 233.392,211.902 233.420,212.292 233.455 M147.205 234.000 C 147.205 234.321,147.240 234.452,147.282 234.292 C 147.323 234.131,147.323 233.869,147.282 233.708 C 147.240 233.548,147.205 233.679,147.205 234.000 M205.375 233.615 C 205.535 233.657,205.798 233.657,205.958 233.615 C 206.119 233.573,205.987 233.539,205.667 233.539 C 205.346 233.539,205.215 233.573,205.375 233.615 M227.750 238.000 C 228.201 238.458,228.608 238.833,228.654 238.833 C 228.700 238.833,228.368 238.458,227.917 238.000 C 227.465 237.542,227.058 237.167,227.013 237.167 C 226.967 237.167,227.299 237.542,227.750 238.000 M193.542 263.448 C 193.702 263.490,193.965 263.490,194.125 263.448 C 194.285 263.406,194.154 263.372,193.833 263.372 C 193.512 263.372,193.381 263.406,193.542 263.448 M203.627 263.451 C 203.834 263.491,204.134 263.490,204.294 263.448 C 204.453 263.406,204.283 263.374,203.917 263.375 C 203.550 263.377,203.420 263.411,203.627 263.451 M197.534 263.623 C 198.149 263.655,199.199 263.656,199.868 263.624 C 200.536 263.592,200.033 263.566,198.750 263.566 C 197.467 263.565,196.920 263.591,197.534 263.623 M281.485 270.307 C 279.897 271.314,278.630 273.354,278.287 275.456 C 278.186 276.076,278.094 276.601,278.082 276.622 C 278.070 276.644,277.766 276.508,277.405 276.320 C 276.897 276.055,276.518 275.992,275.716 276.038 C 274.968 276.082,274.725 276.047,274.837 275.912 C 275.026 275.685,274.714 275.329,274.342 275.344 C 274.199 275.350,274.271 275.430,274.500 275.523 L 274.917 275.691 274.523 276.012 C 274.307 276.189,273.894 276.344,273.607 276.356 C 273.176 276.375,273.154 276.392,273.482 276.454 L 273.880 276.529 273.398 276.847 C 273.133 277.022,273.018 277.165,273.141 277.166 C 273.264 277.166,273.564 277.028,273.808 276.859 C 274.942 276.069,276.377 275.957,277.455 276.574 C 278.267 277.038,278.275 277.032,278.429 275.824 C 278.671 273.935,279.447 272.388,280.769 271.160 C 282.512 269.542,283.815 269.763,282.905 271.523 C 282.663 271.990,282.665 272.046,282.931 272.240 C 283.146 272.397,283.192 272.584,283.112 272.981 C 282.943 273.826,283.380 273.823,284.295 272.975 C 286.539 270.896,287.874 270.167,289.672 270.038 C 291.322 269.920,292.026 270.787,291.167 271.879 C 290.754 272.403,290.754 272.421,291.181 272.848 C 291.673 273.340,291.488 273.932,290.577 274.779 C 289.884 275.424,289.843 275.506,290.025 275.905 C 290.295 276.498,289.964 277.080,289.143 277.458 C 288.582 277.716,288.508 277.819,288.504 278.349 C 288.499 279.029,288.209 279.360,287.278 279.749 C 286.644 280.014,286.604 280.066,286.431 280.861 L 286.334 281.305 288.292 281.361 C 290.040 281.411,290.353 281.467,291.208 281.887 C 292.360 282.453,292.372 282.515,291.426 283.069 C 290.433 283.651,289.140 284.940,288.778 285.708 C 288.377 286.561,287.741 286.474,286.096 285.342 L 285.355 284.832 283.803 285.363 C 278.459 287.188,274.790 285.322,274.218 280.489 C 274.104 279.530,273.669 278.991,273.035 279.023 C 272.586 279.045,272.586 279.046,273.000 279.122 C 273.635 279.239,273.807 279.458,273.929 280.305 C 274.689 285.571,278.482 287.522,284.031 285.498 L 285.311 285.031 285.864 285.445 C 287.485 286.659,288.457 286.810,288.884 285.915 C 289.299 285.044,290.469 283.854,291.458 283.295 C 292.460 282.730,292.530 282.496,291.844 282.008 C 290.928 281.356,289.995 281.118,288.284 281.102 C 286.322 281.084,286.040 280.645,287.500 279.883 C 288.428 279.398,288.667 279.091,288.667 278.385 C 288.667 277.990,288.743 277.833,288.933 277.833 C 289.525 277.833,290.383 276.705,290.279 276.064 C 290.193 275.535,290.253 275.405,290.829 274.857 C 291.662 274.064,291.824 273.461,291.368 272.845 C 291.031 272.389,291.031 272.378,291.346 271.900 C 292.589 270.014,290.026 269.121,287.267 270.479 C 286.601 270.807,285.665 271.498,284.857 272.258 C 283.382 273.645,283.261 273.709,283.414 273.011 C 283.492 272.656,283.439 272.439,283.219 272.219 C 282.927 271.927,282.927 271.895,283.231 271.282 C 283.897 269.935,282.927 269.393,281.485 270.307 M282.083 270.427 C 279.911 271.550,278.104 275.332,278.829 277.239 C 279.214 278.252,280.112 277.794,281.919 275.664 C 283.114 274.255,283.303 273.833,282.740 273.833 C 282.434 273.833,282.436 273.649,282.745 273.240 C 283.085 272.790,283.059 272.500,282.677 272.500 C 282.157 272.500,282.132 272.233,282.588 271.561 C 283.281 270.539,283.017 269.945,282.083 270.427 M289.008 270.350 C 287.250 270.691,284.555 272.810,282.358 275.581 C 280.115 278.409,279.402 278.967,278.937 278.257 C 278.358 277.375,277.157 276.488,276.583 276.520 C 276.262 276.538,276.262 276.542,276.573 276.621 C 277.150 276.768,278.095 277.489,278.595 278.165 C 279.415 279.274,279.879 278.990,282.536 275.750 C 283.727 274.298,285.364 272.673,285.958 272.356 L 286.333 272.155 286.333 273.911 C 286.333 274.970,286.267 275.667,286.167 275.667 C 286.075 275.667,286.000 275.850,286.000 276.073 C 286.000 276.297,286.075 276.527,286.167 276.583 C 286.567 276.831,286.347 277.500,285.865 277.500 C 284.706 277.500,284.571 278.319,285.675 278.650 C 287.073 279.068,286.194 279.680,283.918 279.874 C 282.590 279.987,283.491 280.821,284.969 280.847 L 285.750 280.861 285.032 281.191 C 284.095 281.622,284.123 282.073,285.087 282.105 C 286.431 282.150,286.333 282.053,286.333 283.341 L 286.333 284.515 285.755 284.407 C 285.315 284.324,284.884 284.420,283.953 284.808 C 279.075 286.838,275.377 285.188,274.641 280.652 C 274.501 279.791,274.323 279.288,274.054 278.991 C 273.173 278.022,273.942 276.714,275.428 276.654 C 275.605 276.646,275.657 276.603,275.543 276.557 C 275.256 276.441,274.271 276.787,273.771 277.180 C 273.277 277.568,273.322 278.573,273.853 279.000 C 274.042 279.153,274.231 279.640,274.338 280.250 C 274.808 282.931,275.847 284.589,277.537 285.352 C 278.888 285.963,281.774 285.921,283.417 285.267 C 285.249 284.537,285.349 284.538,286.513 285.315 C 287.791 286.169,288.157 286.186,288.575 285.411 C 288.957 284.701,290.404 283.225,291.040 282.896 C 292.663 282.057,289.562 281.358,285.750 281.705 L 284.417 281.826 285.266 281.434 C 286.666 280.787,286.583 280.500,284.995 280.500 C 283.100 280.500,283.117 280.092,285.018 279.945 C 288.027 279.713,289.388 278.387,286.708 278.298 C 284.856 278.237,284.814 277.956,286.632 277.791 C 288.612 277.612,290.291 276.725,289.725 276.158 C 289.591 276.024,289.362 276.023,288.895 276.152 C 288.087 276.377,286.333 276.389,286.333 276.170 C 286.333 276.080,286.502 275.971,286.708 275.928 C 286.915 275.884,287.481 275.770,287.967 275.674 C 288.452 275.578,289.090 275.379,289.383 275.231 C 291.091 274.371,291.708 272.546,290.049 273.263 C 289.002 273.715,287.845 273.987,287.734 273.807 C 287.603 273.595,287.598 273.599,288.667 273.120 C 290.762 272.180,291.796 270.751,290.625 270.415 C 289.926 270.214,289.751 270.207,289.008 270.350 M282.833 270.610 C 282.833 270.671,282.640 271.051,282.403 271.455 C 281.960 272.210,281.963 272.667,282.411 272.667 C 282.737 272.667,282.732 272.754,282.375 273.362 C 282.093 273.841,282.095 273.866,282.417 274.104 C 283.057 274.576,282.183 274.992,280.542 274.996 C 279.007 275.000,279.034 275.033,279.506 273.772 C 280.143 272.069,282.833 269.513,282.833 270.610 M241.738 270.887 C 241.692 271.008,241.679 271.852,241.709 272.762 L 241.764 274.417 241.798 272.634 L 241.833 270.852 242.625 270.789 L 243.417 270.727 242.620 270.697 C 242.090 270.677,241.795 270.741,241.738 270.887 M244.875 271.417 C 244.877 271.783,244.911 271.914,244.951 271.706 C 244.991 271.499,244.990 271.199,244.948 271.040 C 244.906 270.880,244.874 271.050,244.875 271.417 M139.239 276.333 C 139.239 278.579,139.262 279.498,139.291 278.375 C 139.320 277.252,139.320 275.415,139.291 274.292 C 139.262 273.169,139.239 274.087,139.239 276.333 M273.182 273.194 C 273.271 273.362,273.380 273.500,273.423 273.500 C 273.465 273.500,273.500 273.362,273.500 273.194 C 273.500 273.026,273.392 272.889,273.259 272.889 C 273.077 272.889,273.058 272.964,273.182 273.194 M157.389 274.333 C 157.389 275.021,157.419 275.302,157.455 274.958 C 157.491 274.615,157.491 274.052,157.455 273.708 C 157.419 273.365,157.389 273.646,157.389 274.333 M273.924 273.989 C 273.875 274.068,274.168 274.160,274.576 274.192 C 275.399 274.258,275.382 274.100,274.548 273.944 C 274.254 273.889,273.973 273.909,273.924 273.989 M271.344 274.357 C 271.338 274.507,271.465 274.773,271.625 274.948 C 271.785 275.123,271.863 275.183,271.798 275.082 C 271.733 274.981,271.607 274.715,271.517 274.491 C 271.414 274.233,271.351 274.184,271.344 274.357 M252.382 274.624 C 253.004 274.656,253.979 274.656,254.549 274.623 C 255.118 274.591,254.608 274.564,253.417 274.565 C 252.225 274.565,251.759 274.592,252.382 274.624 M226.711 274.786 C 226.964 274.825,227.339 274.824,227.544 274.784 C 227.749 274.744,227.542 274.713,227.083 274.714 C 226.625 274.716,226.457 274.748,226.711 274.786 M187.542 274.948 C 187.702 274.990,187.965 274.990,188.125 274.948 C 188.285 274.906,188.154 274.872,187.833 274.872 C 187.512 274.872,187.381 274.906,187.542 274.948 M217.235 277.833 C 217.235 279.438,217.260 280.094,217.291 279.292 C 217.321 278.490,217.321 277.177,217.291 276.375 C 217.260 275.573,217.235 276.229,217.235 277.833 M224.736 277.917 C 224.736 279.567,224.761 280.219,224.791 279.367 C 224.821 278.514,224.821 277.164,224.791 276.367 C 224.760 275.569,224.735 276.267,224.736 277.917 M273.224 275.257 C 273.170 275.399,273.172 275.561,273.229 275.618 C 273.287 275.675,273.333 275.603,273.333 275.457 C 273.333 275.311,273.465 275.157,273.625 275.115 C 273.898 275.043,273.898 275.037,273.620 275.019 C 273.456 275.009,273.278 275.116,273.224 275.257 M194.548 275.917 C 194.549 276.375,194.581 276.543,194.620 276.289 C 194.658 276.036,194.657 275.661,194.617 275.456 C 194.578 275.251,194.546 275.458,194.548 275.917 M220.399 277.333 C 220.399 278.571,220.425 279.077,220.457 278.458 C 220.489 277.840,220.489 276.827,220.457 276.208 C 220.425 275.590,220.399 276.096,220.399 277.333 M152.875 275.615 C 153.035 275.657,153.298 275.657,153.458 275.615 C 153.619 275.573,153.487 275.539,153.167 275.539 C 152.846 275.539,152.715 275.573,152.875 275.615 M183.167 275.688 C 183.167 275.733,183.378 275.973,183.636 276.221 L 184.105 276.670 184.507 276.210 L 184.908 275.750 184.503 276.123 L 184.097 276.496 183.632 276.050 C 183.376 275.805,183.167 275.642,183.167 275.688 M251.240 276.375 L 250.750 276.917 251.292 276.427 C 251.797 275.971,251.910 275.833,251.781 275.833 C 251.752 275.833,251.509 276.077,251.240 276.375 M274.667 277.333 C 273.921 278.079,274.480 279.333,275.558 279.333 C 276.251 279.333,276.722 278.850,276.722 278.139 C 276.722 277.141,275.384 276.616,274.667 277.333 M227.900 279.667 C 227.900 281.087,227.926 281.669,227.957 280.958 C 227.988 280.248,227.988 279.085,227.957 278.375 C 227.926 277.665,227.900 278.246,227.900 279.667 M275.871 277.647 C 275.846 277.763,275.902 277.810,275.997 277.752 C 276.267 277.585,276.397 278.145,276.192 278.594 C 275.975 279.071,275.420 279.130,274.971 278.724 C 274.560 278.352,274.588 277.908,275.042 277.589 C 275.463 277.293,275.941 277.327,275.871 277.647 M179.542 277.782 C 179.702 277.823,179.965 277.823,180.125 277.782 C 180.285 277.740,180.154 277.705,179.833 277.705 C 179.512 277.705,179.381 277.740,179.542 277.782 M154.228 279.583 C 154.228 280.500,154.256 280.854,154.290 280.369 C 154.324 279.885,154.323 279.135,154.289 278.703 C 154.255 278.270,154.227 278.667,154.228 279.583 M136.230 280.000 C 136.230 281.054,136.257 281.485,136.290 280.958 C 136.323 280.431,136.323 279.569,136.290 279.042 C 136.257 278.515,136.230 278.946,136.230 280.000 M127.000 282.083 C 127.000 284.176,127.035 285.854,127.077 285.812 C 127.191 285.698,127.209 278.486,127.096 278.373 C 127.043 278.321,127.000 279.990,127.000 282.083 M271.974 279.383 C 272.005 279.860,272.080 280.303,272.140 280.367 C 272.201 280.431,272.224 280.094,272.193 279.617 C 272.162 279.140,272.087 278.697,272.026 278.633 C 271.966 278.569,271.942 278.906,271.974 279.383 M151.403 282.583 C 151.403 284.325,151.428 285.015,151.458 284.116 C 151.488 283.218,151.488 281.793,151.457 280.950 C 151.427 280.107,151.403 280.842,151.403 282.583 M245.575 281.875 L 244.917 282.583 245.625 281.925 C 246.284 281.312,246.410 281.167,246.284 281.167 C 246.257 281.167,245.938 281.485,245.575 281.875 M141.372 282.833 C 141.372 283.154,141.406 283.285,141.448 283.125 C 141.490 282.965,141.490 282.702,141.448 282.542 C 141.406 282.381,141.372 282.512,141.372 282.833 M216.056 284.167 C 216.056 284.854,216.085 285.135,216.121 284.792 C 216.157 284.448,216.157 283.885,216.121 283.542 C 216.085 283.198,216.056 283.479,216.056 284.167 M181.714 284.750 C 181.716 285.208,181.748 285.376,181.786 285.123 C 181.825 284.869,181.824 284.494,181.784 284.289 C 181.744 284.084,181.713 284.292,181.714 284.750 M206.067 285.000 L 206.083 285.417 208.792 285.423 L 211.500 285.429 208.844 285.377 C 206.249 285.326,206.186 285.317,206.120 284.954 C 206.061 284.639,206.054 284.646,206.067 285.000 M189.796 285.622 C 190.188 285.657,190.788 285.657,191.129 285.621 C 191.471 285.585,191.150 285.557,190.417 285.557 C 189.683 285.558,189.404 285.587,189.796 285.622 M137.047 285.956 C 137.485 285.990,138.160 285.990,138.547 285.955 C 138.934 285.920,138.575 285.892,137.750 285.892 C 136.925 285.893,136.609 285.922,137.047 285.956 " stroke="none" fill="#cccccc" fill-rule="evenodd"></path><path id="path3" d="M205.875 96.917 C 205.877 97.283,205.911 97.414,205.951 97.206 C 205.991 96.999,205.990 96.699,205.948 96.540 C 205.906 96.380,205.874 96.550,205.875 96.917 M204.073 101.208 L 203.583 101.750 204.125 101.260 C 204.630 100.804,204.743 100.667,204.615 100.667 C 204.586 100.667,204.342 100.910,204.073 101.208 M199.375 102.286 C 199.627 102.324,200.040 102.324,200.292 102.286 C 200.544 102.248,200.338 102.217,199.833 102.217 C 199.329 102.217,199.123 102.248,199.375 102.286 M179.372 119.000 C 179.372 119.321,179.406 119.452,179.448 119.292 C 179.490 119.131,179.490 118.869,179.448 118.708 C 179.406 118.548,179.372 118.679,179.372 119.000 M220.372 121.000 C 220.372 121.321,220.406 121.452,220.448 121.292 C 220.490 121.131,220.490 120.869,220.448 120.708 C 220.406 120.548,220.372 120.679,220.372 121.000 M179.209 121.417 C 179.211 121.783,179.245 121.914,179.285 121.706 C 179.324 121.499,179.323 121.199,179.281 121.040 C 179.239 120.880,179.207 121.050,179.209 121.417 M220.553 124.833 C 220.553 125.429,220.584 125.673,220.621 125.375 C 220.658 125.077,220.658 124.590,220.621 124.292 C 220.584 123.994,220.553 124.237,220.553 124.833 M179.073 128.667 C 179.073 131.096,179.096 132.090,179.125 130.875 C 179.153 129.660,179.153 127.673,179.125 126.458 C 179.096 125.244,179.073 126.237,179.073 128.667 M220.559 133.083 C 220.559 133.908,220.587 134.267,220.622 133.880 C 220.657 133.493,220.657 132.818,220.623 132.380 C 220.588 131.942,220.560 132.258,220.559 133.083 M179.217 137.333 C 179.217 137.837,179.248 138.044,179.286 137.792 C 179.324 137.540,179.324 137.127,179.286 136.875 C 179.248 136.623,179.217 136.829,179.217 137.333 M220.379 138.167 C 220.379 138.579,220.411 138.748,220.451 138.542 C 220.491 138.335,220.491 137.998,220.451 137.792 C 220.411 137.585,220.379 137.754,220.379 138.167 M179.375 140.917 C 179.377 141.283,179.411 141.414,179.451 141.206 C 179.491 140.999,179.490 140.699,179.448 140.540 C 179.406 140.380,179.374 140.550,179.375 140.917 M220.209 141.417 C 220.211 141.783,220.245 141.914,220.285 141.706 C 220.324 141.499,220.323 141.199,220.281 141.040 C 220.239 140.880,220.207 141.050,220.209 141.417 M179.539 143.667 C 179.539 143.987,179.573 144.119,179.615 143.958 C 179.657 143.798,179.657 143.535,179.615 143.375 C 179.573 143.215,179.539 143.346,179.539 143.667 M179.705 146.000 C 179.705 146.321,179.740 146.452,179.782 146.292 C 179.823 146.131,179.823 145.869,179.782 145.708 C 179.740 145.548,179.705 145.679,179.705 146.000 M199.101 150.357 C 198.963 150.848,198.808 151.550,198.759 151.917 C 198.709 152.283,198.846 151.908,199.064 151.083 C 199.281 150.258,199.436 149.557,199.406 149.524 C 199.377 149.491,199.240 149.866,199.101 150.357 M201.202 152.583 C 201.199 152.858,201.254 153.458,201.326 153.917 C 201.432 154.598,201.457 154.644,201.465 154.167 C 201.471 153.846,201.415 153.246,201.342 152.833 C 201.245 152.288,201.207 152.220,201.202 152.583 M198.375 154.750 C 198.377 155.117,198.411 155.247,198.451 155.040 C 198.491 154.832,198.490 154.532,198.448 154.373 C 198.406 154.214,198.374 154.383,198.375 154.750 M201.548 155.750 C 201.549 156.208,201.581 156.376,201.620 156.123 C 201.658 155.869,201.657 155.494,201.617 155.289 C 201.578 155.084,201.546 155.292,201.548 155.750 M180.875 155.917 C 180.877 156.283,180.911 156.414,180.951 156.206 C 180.991 155.999,180.990 155.699,180.948 155.540 C 180.906 155.380,180.874 155.550,180.875 155.917 M198.214 156.417 C 198.216 156.875,198.248 157.043,198.286 156.789 C 198.325 156.536,198.324 156.161,198.284 155.956 C 198.244 155.751,198.213 155.958,198.214 156.417 M181.042 157.250 C 181.044 157.617,181.078 157.747,181.118 157.540 C 181.158 157.332,181.156 157.032,181.115 156.873 C 181.073 156.714,181.040 156.883,181.042 157.250 M201.714 158.083 C 201.716 158.542,201.748 158.709,201.786 158.456 C 201.825 158.203,201.824 157.828,201.784 157.623 C 201.744 157.418,201.713 157.625,201.714 158.083 M198.053 158.500 C 198.053 159.096,198.084 159.340,198.121 159.042 C 198.158 158.744,198.158 158.256,198.121 157.958 C 198.084 157.660,198.053 157.904,198.053 158.500 M181.205 158.500 C 181.205 158.821,181.240 158.952,181.282 158.792 C 181.323 158.631,181.323 158.369,181.282 158.208 C 181.240 158.048,181.205 158.179,181.205 158.500 M218.539 159.333 C 218.539 159.654,218.573 159.785,218.615 159.625 C 218.657 159.465,218.657 159.202,218.615 159.042 C 218.573 158.881,218.539 159.012,218.539 159.333 M181.372 159.667 C 181.372 159.987,181.406 160.119,181.448 159.958 C 181.490 159.798,181.490 159.535,181.448 159.375 C 181.406 159.215,181.372 159.346,181.372 159.667 M201.888 160.917 C 201.889 161.558,201.919 161.800,201.955 161.455 C 201.991 161.109,201.990 160.584,201.954 160.288 C 201.917 159.992,201.887 160.275,201.888 160.917 M218.372 160.500 C 218.372 160.821,218.406 160.952,218.448 160.792 C 218.490 160.631,218.490 160.369,218.448 160.208 C 218.406 160.048,218.372 160.179,218.372 160.500 M197.883 161.833 C 197.883 162.337,197.915 162.544,197.953 162.292 C 197.991 162.040,197.991 161.627,197.953 161.375 C 197.915 161.123,197.883 161.329,197.883 161.833 M202.075 169.667 C 202.075 172.737,202.097 173.994,202.125 172.458 C 202.152 170.923,202.152 168.410,202.125 166.875 C 202.097 165.340,202.075 166.596,202.075 169.667 M197.740 169.917 C 197.740 172.575,197.763 173.639,197.791 172.281 C 197.819 170.924,197.819 168.749,197.791 167.448 C 197.763 166.147,197.740 167.258,197.740 169.917 M214.929 177.429 C 214.867 177.673,214.849 177.905,214.889 177.944 C 214.928 177.983,215.010 177.816,215.071 177.571 C 215.133 177.327,215.151 177.095,215.111 177.056 C 215.072 177.017,214.990 177.184,214.929 177.429 M201.887 178.167 C 201.887 178.762,201.917 179.006,201.954 178.708 C 201.991 178.410,201.991 177.923,201.954 177.625 C 201.917 177.327,201.887 177.571,201.887 178.167 M185.023 177.667 C 185.023 177.804,185.088 178.067,185.167 178.250 C 185.257 178.460,185.310 178.491,185.310 178.333 C 185.310 178.196,185.245 177.933,185.167 177.750 C 185.076 177.540,185.023 177.509,185.023 177.667 M197.881 178.250 C 197.882 178.708,197.915 178.876,197.953 178.623 C 197.991 178.369,197.990 177.994,197.951 177.789 C 197.911 177.584,197.880 177.792,197.881 178.250 M185.357 178.833 C 185.357 178.971,185.421 179.233,185.500 179.417 C 185.590 179.627,185.643 179.658,185.643 179.500 C 185.643 179.362,185.579 179.100,185.500 178.917 C 185.410 178.707,185.357 178.676,185.357 178.833 M201.712 180.833 C 201.712 181.246,201.745 181.415,201.784 181.208 C 201.824 181.002,201.824 180.665,201.784 180.458 C 201.745 180.252,201.712 180.421,201.712 180.833 M198.042 181.917 C 198.044 182.283,198.078 182.414,198.118 182.206 C 198.158 181.999,198.156 181.699,198.115 181.540 C 198.073 181.380,198.040 181.550,198.042 181.917 M198.622 195.767 C 198.555 195.834,198.500 196.004,198.500 196.144 C 198.500 196.332,198.549 196.351,198.685 196.215 C 198.787 196.113,198.842 195.943,198.807 195.838 C 198.772 195.732,198.688 195.701,198.622 195.767 M148.208 203.615 C 148.369 203.657,148.631 203.657,148.792 203.615 C 148.952 203.573,148.821 203.539,148.500 203.539 C 148.179 203.539,148.048 203.573,148.208 203.615 M251.294 203.618 C 251.501 203.658,251.801 203.656,251.960 203.615 C 252.120 203.573,251.950 203.540,251.583 203.542 C 251.217 203.544,251.086 203.578,251.294 203.618 M138.333 206.250 C 137.928 206.662,137.635 207.000,137.681 207.000 C 137.726 207.000,138.095 206.662,138.500 206.250 C 138.905 205.838,139.199 205.500,139.153 205.500 C 139.107 205.500,138.738 205.838,138.333 206.250 M135.548 212.917 C 135.549 213.375,135.581 213.543,135.620 213.289 C 135.658 213.036,135.657 212.661,135.617 212.456 C 135.578 212.251,135.546 212.458,135.548 212.917 M170.958 216.956 C 171.440 216.990,172.227 216.990,172.708 216.956 C 173.190 216.923,172.796 216.895,171.833 216.895 C 170.871 216.895,170.477 216.923,170.958 216.956 M223.458 218.787 C 223.756 218.824,224.244 218.824,224.542 218.787 C 224.840 218.750,224.596 218.720,224.000 218.720 C 223.404 218.720,223.160 218.750,223.458 218.787 M151.242 222.375 L 150.583 223.083 151.292 222.425 C 151.950 221.812,152.077 221.667,151.950 221.667 C 151.923 221.667,151.605 221.985,151.242 222.375 M210.625 233.451 C 210.831 233.491,211.169 233.491,211.375 233.451 C 211.581 233.411,211.412 233.379,211.000 233.379 C 210.588 233.379,210.419 233.411,210.625 233.451 M206.460 233.618 C 206.668 233.658,206.968 233.656,207.127 233.615 C 207.286 233.573,207.117 233.540,206.750 233.542 C 206.383 233.544,206.253 233.578,206.460 233.618 M214.958 233.618 C 215.165 233.657,215.502 233.657,215.708 233.618 C 215.915 233.578,215.746 233.545,215.333 233.545 C 214.921 233.545,214.752 233.578,214.958 233.618 M204.208 233.782 C 204.369 233.823,204.631 233.823,204.792 233.782 C 204.952 233.740,204.821 233.705,204.500 233.705 C 204.179 233.705,204.048 233.740,204.208 233.782 M148.487 239.728 C 148.939 240.218,149.028 240.266,148.908 239.955 C 148.863 239.838,148.660 239.641,148.455 239.516 C 148.101 239.300,148.102 239.310,148.487 239.728 M232.218 248.750 C 232.219 249.300,232.250 249.505,232.287 249.205 C 232.325 248.906,232.324 248.456,232.286 248.205 C 232.248 247.955,232.217 248.200,232.218 248.750 M162.788 248.954 C 163.084 248.990,163.609 248.991,163.955 248.955 C 164.300 248.919,164.058 248.889,163.417 248.888 C 162.775 248.887,162.492 248.917,162.788 248.954 M281.917 270.272 C 280.163 271.204,278.728 273.488,278.429 275.824 C 278.275 277.032,278.267 277.038,277.455 276.574 C 276.377 275.957,274.942 276.069,273.808 276.859 C 273.217 277.270,272.872 277.247,272.784 276.792 C 272.731 276.515,272.706 276.556,272.689 276.948 C 272.660 277.630,272.378 277.815,272.286 277.211 C 272.217 276.751,272.217 276.751,272.192 277.180 C 272.176 277.452,272.014 277.692,271.750 277.833 C 271.521 277.956,271.333 278.107,271.333 278.168 C 271.333 278.343,272.174 278.682,272.346 278.576 C 272.433 278.522,272.500 278.885,272.500 279.417 C 272.500 280.082,272.444 280.319,272.308 280.234 C 272.187 280.160,272.160 280.188,272.236 280.310 C 272.451 280.658,272.667 280.330,272.667 279.657 C 272.667 278.282,274.044 279.021,274.218 280.489 C 274.790 285.322,278.459 287.188,283.803 285.363 L 285.355 284.832 286.096 285.342 C 287.741 286.474,288.377 286.561,288.778 285.708 C 289.140 284.940,290.433 283.651,291.426 283.069 C 292.372 282.515,292.360 282.453,291.208 281.887 C 290.353 281.467,290.040 281.411,288.292 281.361 L 286.334 281.305 286.431 280.861 C 286.604 280.066,286.644 280.014,287.278 279.749 C 288.209 279.360,288.499 279.029,288.504 278.349 C 288.508 277.819,288.582 277.716,289.143 277.458 C 289.964 277.080,290.295 276.498,290.025 275.905 C 289.843 275.506,289.884 275.424,290.577 274.779 C 291.488 273.932,291.673 273.340,291.181 272.848 C 290.754 272.421,290.754 272.403,291.167 271.879 C 292.026 270.787,291.322 269.920,289.672 270.038 C 287.874 270.167,286.539 270.896,284.295 272.975 C 283.380 273.823,282.943 273.826,283.112 272.981 C 283.192 272.584,283.146 272.397,282.931 272.240 C 282.662 272.043,282.661 271.994,282.915 271.504 C 283.506 270.360,282.978 269.708,281.917 270.272 M195.875 270.282 C 196.035 270.323,196.298 270.323,196.458 270.282 C 196.619 270.240,196.487 270.205,196.167 270.205 C 195.846 270.205,195.715 270.240,195.875 270.282 M282.965 270.604 C 282.992 270.785,282.822 271.215,282.588 271.561 C 282.132 272.233,282.157 272.500,282.677 272.500 C 283.059 272.500,283.085 272.790,282.745 273.240 C 282.436 273.649,282.434 273.833,282.740 273.833 C 283.303 273.833,283.114 274.255,281.919 275.664 C 279.307 278.742,277.844 278.173,278.981 274.521 C 279.764 272.004,282.739 269.080,282.965 270.604 M290.625 270.415 C 291.796 270.751,290.762 272.180,288.667 273.120 C 287.598 273.599,287.603 273.595,287.734 273.807 C 287.845 273.987,289.002 273.715,290.049 273.263 C 291.708 272.546,291.091 274.371,289.383 275.231 C 289.090 275.379,288.452 275.578,287.967 275.674 C 287.481 275.770,286.915 275.884,286.708 275.928 C 286.502 275.971,286.333 276.080,286.333 276.170 C 286.333 276.389,288.087 276.377,288.895 276.152 C 289.362 276.023,289.591 276.024,289.725 276.158 C 290.291 276.725,288.612 277.612,286.632 277.791 C 284.814 277.956,284.856 278.237,286.708 278.298 C 289.388 278.387,288.027 279.713,285.018 279.945 C 283.117 280.092,283.100 280.500,284.995 280.500 C 286.583 280.500,286.666 280.787,285.266 281.434 L 284.417 281.826 285.750 281.705 C 289.562 281.358,292.663 282.057,291.040 282.896 C 290.404 283.225,288.957 284.701,288.575 285.411 C 288.157 286.186,287.791 286.169,286.513 285.315 C 285.349 284.538,285.249 284.537,283.417 285.267 C 281.774 285.921,278.888 285.963,277.537 285.352 C 275.847 284.589,274.808 282.931,274.338 280.250 C 274.231 279.640,274.042 279.153,273.853 279.000 C 273.406 278.641,273.281 277.599,273.644 277.271 C 275.162 275.896,277.700 276.369,278.937 278.257 C 279.402 278.967,280.115 278.409,282.358 275.581 C 284.555 272.810,287.250 270.691,289.008 270.350 C 289.751 270.207,289.926 270.214,290.625 270.415 M243.711 270.786 C 243.964 270.825,244.339 270.824,244.544 270.784 C 244.749 270.744,244.542 270.713,244.083 270.714 C 243.625 270.716,243.457 270.748,243.711 270.786 M274.500 271.731 C 274.500 271.767,274.721 271.828,274.991 271.868 C 275.261 271.907,275.444 271.878,275.398 271.803 C 275.315 271.670,274.500 271.604,274.500 271.731 M244.904 275.333 C 244.904 277.212,244.928 277.981,244.958 277.042 C 244.987 276.102,244.987 274.565,244.958 273.625 C 244.928 272.685,244.904 273.454,244.904 275.333 M124.629 272.456 C 125.021 272.491,125.621 272.490,125.963 272.454 C 126.304 272.419,125.983 272.390,125.250 272.390 C 124.517 272.391,124.237 272.420,124.629 272.456 M209.240 276.750 C 209.240 279.225,209.263 280.261,209.291 279.052 C 209.320 277.843,209.320 275.818,209.291 274.552 C 209.263 273.286,209.240 274.275,209.240 276.750 M206.075 278.667 C 206.075 281.921,206.097 283.252,206.125 281.625 C 206.152 279.998,206.152 277.335,206.125 275.708 C 206.097 274.081,206.075 275.412,206.075 278.667 M154.236 273.227 C 154.188 273.352,154.176 273.896,154.209 274.435 L 154.270 275.417 154.302 274.298 L 154.333 273.179 155.875 273.124 L 157.417 273.069 155.870 273.035 C 154.694 273.008,154.302 273.054,154.236 273.227 M262.047 274.623 C 262.485 274.657,263.160 274.657,263.547 274.622 C 263.934 274.587,263.575 274.559,262.750 274.559 C 261.925 274.560,261.609 274.588,262.047 274.623 M177.372 275.667 C 177.372 275.987,177.406 276.119,177.448 275.958 C 177.490 275.798,177.490 275.535,177.448 275.375 C 177.406 275.215,177.372 275.346,177.372 275.667 M197.667 280.284 C 197.621 283.144,197.641 285.426,197.711 285.356 C 197.781 285.286,197.818 282.946,197.794 280.156 L 197.750 275.083 197.667 280.284 M158.616 275.620 L 159.816 275.681 159.883 276.465 L 159.951 277.250 159.934 276.417 L 159.917 275.583 158.667 275.571 L 157.417 275.558 158.616 275.620 M152.718 277.083 C 152.719 277.633,152.750 277.838,152.787 277.539 C 152.825 277.239,152.824 276.789,152.786 276.539 C 152.748 276.288,152.717 276.533,152.718 277.083 M246.161 277.625 L 245.250 278.583 246.208 277.672 C 246.735 277.171,247.167 276.740,247.167 276.714 C 247.167 276.590,247.007 276.735,246.161 277.625 M249.662 277.958 L 248.583 279.083 249.708 278.005 C 250.753 277.003,250.910 276.833,250.787 276.833 C 250.761 276.833,250.255 277.340,249.662 277.958 M241.905 281.000 C 241.905 283.246,241.929 284.165,241.958 283.042 C 241.987 281.919,241.987 280.081,241.958 278.958 C 241.929 277.835,241.905 278.754,241.905 281.000 M145.375 277.786 C 145.627 277.824,146.040 277.824,146.292 277.786 C 146.544 277.748,146.337 277.717,145.833 277.717 C 145.329 277.717,145.123 277.748,145.375 277.786 M158.667 277.833 L 157.417 277.940 158.615 277.970 C 159.274 277.986,159.860 277.925,159.917 277.833 C 159.973 277.742,159.996 277.680,159.968 277.697 C 159.940 277.713,159.354 277.775,158.667 277.833 M157.396 280.667 C 157.396 281.721,157.423 282.152,157.456 281.625 C 157.490 281.098,157.490 280.235,157.456 279.708 C 157.423 279.181,157.396 279.612,157.396 280.667 M181.733 281.667 C 181.733 282.996,181.759 283.540,181.790 282.875 C 181.822 282.210,181.822 281.123,181.790 280.458 C 181.759 279.794,181.733 280.337,181.733 281.667 M161.218 280.417 C 161.219 280.967,161.250 281.172,161.287 280.872 C 161.325 280.572,161.324 280.122,161.286 279.872 C 161.248 279.622,161.217 279.867,161.218 280.417 M192.066 281.833 C 192.066 283.162,192.092 283.706,192.124 283.042 C 192.155 282.377,192.155 281.290,192.124 280.625 C 192.092 279.960,192.066 280.504,192.066 281.833 M220.379 280.167 C 220.379 280.579,220.411 280.748,220.451 280.542 C 220.491 280.335,220.491 279.998,220.451 279.792 C 220.411 279.585,220.379 279.754,220.379 280.167 M177.565 282.000 C 177.565 283.237,177.592 283.744,177.624 283.125 C 177.656 282.506,177.656 281.494,177.624 280.875 C 177.592 280.256,177.565 280.762,177.565 282.000 M139.235 283.083 C 139.235 284.642,139.260 285.302,139.291 284.550 C 139.321 283.798,139.321 282.523,139.291 281.717 C 139.260 280.910,139.235 281.525,139.235 283.083 M189.067 283.000 C 189.067 284.421,189.093 285.002,189.124 284.292 C 189.155 283.581,189.155 282.419,189.124 281.708 C 189.093 280.998,189.067 281.579,189.067 283.000 M227.867 283.637 L 227.833 285.191 226.432 285.137 C 225.661 285.108,225.066 285.140,225.109 285.208 C 225.254 285.443,227.836 285.354,227.929 285.111 C 227.976 284.989,227.989 284.258,227.958 283.486 L 227.901 282.083 227.867 283.637 M210.542 282.791 C 211.252 282.822,212.415 282.822,213.125 282.791 C 213.835 282.759,213.254 282.734,211.833 282.734 C 210.412 282.734,209.831 282.759,210.542 282.791 M222.208 282.782 C 222.369 282.823,222.631 282.823,222.792 282.782 C 222.952 282.740,222.821 282.705,222.500 282.705 C 222.179 282.705,222.048 282.740,222.208 282.782 M174.500 285.083 C 174.500 285.404,174.560 285.667,174.633 285.667 C 174.706 285.667,174.736 285.404,174.698 285.083 C 174.661 284.762,174.601 284.500,174.565 284.500 C 174.529 284.500,174.500 284.762,174.500 285.083 M250.548 285.123 C 251.078 285.157,251.903 285.156,252.381 285.123 C 252.859 285.089,252.425 285.062,251.417 285.062 C 250.408 285.063,250.017 285.090,250.548 285.123 M176.667 285.500 L 175.750 285.612 176.708 285.640 C 177.254 285.655,177.667 285.595,177.667 285.500 C 177.667 285.408,177.648 285.346,177.625 285.360 C 177.602 285.375,177.171 285.438,176.667 285.500 M221.377 285.453 C 221.631 285.491,222.006 285.490,222.211 285.451 C 222.416 285.411,222.208 285.380,221.750 285.381 C 221.292 285.382,221.124 285.415,221.377 285.453 M182.542 285.623 C 182.977 285.657,183.690 285.657,184.125 285.623 C 184.560 285.588,184.204 285.560,183.333 285.560 C 182.463 285.560,182.106 285.588,182.542 285.623 M124.148 285.882 C 124.221 285.955,124.912 285.992,125.682 285.964 L 127.083 285.914 125.549 285.832 C 124.705 285.787,124.075 285.809,124.148 285.882 M157.792 285.951 C 157.998 285.991,158.335 285.991,158.542 285.951 C 158.748 285.911,158.579 285.879,158.167 285.879 C 157.754 285.879,157.585 285.911,157.792 285.951 M254.958 288.951 C 255.165 288.991,255.502 288.991,255.708 288.951 C 255.915 288.911,255.746 288.879,255.333 288.879 C 254.921 288.879,254.752 288.911,254.958 288.951 " stroke="none" fill="#a9aaa9" fill-rule="evenodd"></path><path id="path4" d="M195.406 92.708 L 194.917 93.250 195.458 92.760 C 195.963 92.304,196.077 92.167,195.948 92.167 C 195.919 92.167,195.675 92.410,195.406 92.708 M203.667 92.219 C 203.667 92.248,203.910 92.491,204.208 92.760 L 204.750 93.250 204.260 92.708 C 203.804 92.203,203.667 92.090,203.667 92.219 M193.714 96.917 C 193.716 97.375,193.748 97.543,193.786 97.289 C 193.825 97.036,193.824 96.661,193.784 96.456 C 193.744 96.251,193.713 96.458,193.714 96.917 M199.542 101.782 C 199.702 101.823,199.965 101.823,200.125 101.782 C 200.285 101.740,200.154 101.705,199.833 101.705 C 199.512 101.705,199.381 101.740,199.542 101.782 M201.705 156.833 C 201.705 157.154,201.740 157.285,201.782 157.125 C 201.823 156.965,201.823 156.702,201.782 156.542 C 201.740 156.381,201.705 156.512,201.705 156.833 M201.879 159.167 C 201.879 159.579,201.911 159.748,201.951 159.542 C 201.991 159.335,201.991 158.998,201.951 158.792 C 201.911 158.585,201.879 158.754,201.879 159.167 M197.879 160.333 C 197.879 160.746,197.911 160.915,197.951 160.708 C 197.991 160.502,197.991 160.165,197.951 159.958 C 197.911 159.752,197.879 159.921,197.879 160.333 M202.057 162.917 C 202.058 163.650,202.087 163.929,202.122 163.537 C 202.157 163.145,202.157 162.545,202.121 162.204 C 202.085 161.863,202.057 162.183,202.057 162.917 M197.724 163.917 C 197.724 164.650,197.754 164.929,197.789 164.537 C 197.824 164.145,197.824 163.545,197.788 163.204 C 197.752 162.863,197.723 163.183,197.724 163.917 M197.724 175.917 C 197.724 176.650,197.754 176.929,197.789 176.537 C 197.824 176.145,197.824 175.545,197.788 175.204 C 197.752 174.863,197.723 175.183,197.724 175.917 M202.056 176.333 C 202.056 177.021,202.085 177.302,202.121 176.958 C 202.157 176.615,202.157 176.052,202.121 175.708 C 202.085 175.365,202.056 175.646,202.056 176.333 M197.879 179.667 C 197.879 180.079,197.911 180.248,197.951 180.042 C 197.991 179.835,197.991 179.498,197.951 179.292 C 197.911 179.085,197.879 179.254,197.879 179.667 M201.879 179.833 C 201.879 180.246,201.911 180.415,201.951 180.208 C 201.991 180.002,201.991 179.665,201.951 179.458 C 201.911 179.252,201.879 179.421,201.879 179.833 M201.709 182.083 C 201.711 182.450,201.745 182.580,201.785 182.373 C 201.824 182.166,201.823 181.866,201.781 181.706 C 201.739 181.547,201.707 181.717,201.709 182.083 M147.127 203.618 C 147.334 203.658,147.634 203.656,147.794 203.615 C 147.953 203.573,147.783 203.540,147.417 203.542 C 147.050 203.544,146.920 203.578,147.127 203.618 M252.460 203.618 C 252.668 203.658,252.968 203.656,253.127 203.615 C 253.286 203.573,253.117 203.540,252.750 203.542 C 252.383 203.544,252.253 203.578,252.460 203.618 M257.127 203.618 C 257.334 203.658,257.634 203.656,257.794 203.615 C 257.953 203.573,257.783 203.540,257.417 203.542 C 257.050 203.544,256.920 203.578,257.127 203.618 M193.577 206.708 L 192.750 207.583 193.625 206.756 C 194.438 205.988,194.576 205.833,194.452 205.833 C 194.426 205.833,194.032 206.227,193.577 206.708 M203.667 207.083 C 203.978 207.404,204.270 207.667,204.315 207.667 C 204.361 207.667,204.144 207.404,203.833 207.083 C 203.522 206.762,203.230 206.500,203.185 206.500 C 203.139 206.500,203.356 206.762,203.667 207.083 M169.125 216.951 C 169.331 216.991,169.669 216.991,169.875 216.951 C 170.081 216.911,169.912 216.879,169.500 216.879 C 169.087 216.879,168.919 216.911,169.125 216.951 M173.877 216.953 C 174.131 216.991,174.506 216.990,174.711 216.951 C 174.916 216.911,174.708 216.880,174.250 216.881 C 173.792 216.882,173.624 216.915,173.877 216.953 M147.055 232.583 C 147.055 233.225,147.086 233.467,147.122 233.121 C 147.158 232.775,147.157 232.250,147.120 231.955 C 147.083 231.659,147.054 231.942,147.055 232.583 M207.542 233.615 C 207.702 233.657,207.965 233.657,208.125 233.615 C 208.285 233.573,208.154 233.539,207.833 233.539 C 207.512 233.539,207.381 233.573,207.542 233.615 M213.875 233.615 C 214.035 233.657,214.298 233.657,214.458 233.615 C 214.619 233.573,214.487 233.539,214.167 233.539 C 213.846 233.539,213.715 233.573,213.875 233.615 M241.903 273.917 C 241.903 275.658,241.928 276.348,241.958 275.450 C 241.988 274.551,241.988 273.126,241.957 272.283 C 241.927 271.440,241.903 272.175,241.903 273.917 M274.075 272.069 C 273.898 272.198,273.674 272.626,273.579 273.018 L 273.405 273.732 273.041 273.116 C 272.842 272.777,272.600 272.500,272.506 272.500 C 272.175 272.500,272.334 273.475,272.744 273.963 C 273.093 274.378,273.123 274.496,272.942 274.744 C 272.743 275.015,272.709 275.005,272.448 274.607 C 271.992 273.912,271.500 273.723,271.500 274.244 C 271.500 274.631,271.675 274.867,272.400 275.460 C 272.597 275.622,272.619 275.770,272.495 276.096 C 272.281 276.660,272.284 277.717,272.500 277.583 C 272.592 277.527,272.667 277.303,272.667 277.087 C 272.667 276.386,272.834 276.160,273.271 276.270 C 273.780 276.398,274.667 276.040,274.667 275.707 C 274.667 275.501,274.511 275.472,273.833 275.552 C 272.980 275.653,272.888 275.601,273.162 275.168 C 273.261 275.011,273.511 274.939,273.835 274.973 C 274.408 275.033,275.239 274.585,275.068 274.308 C 275.002 274.202,274.700 274.172,274.312 274.234 C 273.476 274.368,273.476 274.104,274.314 273.677 C 274.754 273.452,274.996 273.198,275.072 272.882 C 275.133 272.626,275.221 272.285,275.269 272.125 C 275.379 271.754,274.558 271.716,274.075 272.069 M248.740 275.208 L 248.250 275.750 248.750 275.306 C 249.025 275.062,249.438 274.828,249.667 274.787 L 250.083 274.712 249.656 274.689 C 249.368 274.674,249.070 274.842,248.740 275.208 M217.407 275.048 C 217.362 275.165,217.348 276.572,217.375 278.173 L 217.425 281.083 217.463 278.048 L 217.500 275.013 218.958 274.957 L 220.417 274.902 218.953 274.868 C 217.889 274.843,217.467 274.892,217.407 275.048 M194.775 275.125 C 194.733 275.194,195.159 275.229,195.724 275.204 C 197.562 275.120,197.779 275.054,196.302 275.027 C 195.505 275.012,194.818 275.056,194.775 275.125 M174.575 275.377 C 174.531 275.493,174.516 277.612,174.542 280.086 L 174.589 284.583 174.628 279.965 L 174.667 275.347 176.042 275.291 L 177.417 275.235 176.036 275.201 C 175.051 275.176,174.633 275.227,174.575 275.377 M166.627 277.618 C 166.834 277.658,167.134 277.656,167.294 277.615 C 167.453 277.573,167.283 277.540,166.917 277.542 C 166.550 277.544,166.420 277.578,166.627 277.618 M186.794 277.618 C 187.001 277.658,187.301 277.656,187.460 277.615 C 187.620 277.573,187.450 277.540,187.083 277.542 C 186.717 277.544,186.586 277.578,186.794 277.618 M224.893 279.000 C 224.893 279.871,224.922 280.227,224.956 279.792 C 224.990 279.356,224.990 278.644,224.956 278.208 C 224.922 277.773,224.893 278.129,224.893 279.000 M153.537 277.950 L 154.325 278.018 154.378 280.426 L 154.431 282.834 154.424 280.375 L 154.417 277.917 153.583 277.900 L 152.750 277.883 153.537 277.950 M194.745 281.750 L 194.750 285.417 196.083 285.427 L 197.417 285.437 196.128 285.378 L 194.840 285.320 194.790 281.702 L 194.740 278.083 194.745 281.750 M126.898 280.167 C 126.898 281.313,126.924 281.781,126.957 281.208 C 126.989 280.635,126.989 279.698,126.957 279.125 C 126.924 278.552,126.898 279.021,126.898 280.167 M272.278 278.611 C 272.103 278.786,272.148 280.136,272.333 280.250 C 272.437 280.314,272.500 280.002,272.500 279.427 C 272.500 278.490,272.478 278.411,272.278 278.611 M229.875 279.917 C 229.877 280.283,229.911 280.414,229.951 280.206 C 229.991 279.999,229.990 279.699,229.948 279.540 C 229.906 279.380,229.874 279.550,229.875 279.917 M189.039 280.000 C 189.039 280.321,189.073 280.452,189.115 280.292 C 189.157 280.131,189.157 279.869,189.115 279.708 C 189.073 279.548,189.039 279.679,189.039 280.000 M124.069 282.667 C 124.069 284.362,124.094 285.056,124.124 284.208 C 124.154 283.360,124.154 281.973,124.124 281.125 C 124.094 280.277,124.069 280.971,124.069 282.667 M145.796 279.789 C 146.188 279.824,146.788 279.824,147.129 279.788 C 147.471 279.752,147.150 279.723,146.417 279.724 C 145.683 279.724,145.404 279.754,145.796 279.789 M164.205 280.500 C 164.205 280.821,164.240 280.952,164.282 280.792 C 164.323 280.631,164.323 280.369,164.282 280.208 C 164.240 280.048,164.205 280.179,164.205 280.500 M172.539 280.500 C 172.539 280.821,172.573 280.952,172.615 280.792 C 172.657 280.631,172.657 280.369,172.615 280.208 C 172.573 280.048,172.539 280.179,172.539 280.500 M245.575 281.708 L 244.917 282.417 245.618 281.765 C 246.245 281.182,246.350 281.138,246.618 281.348 C 246.890 281.563,246.896 281.558,246.688 281.292 C 246.371 280.888,246.321 280.907,245.575 281.708 M209.214 281.917 C 209.216 282.375,209.248 282.543,209.286 282.289 C 209.325 282.036,209.324 281.661,209.284 281.456 C 209.244 281.251,209.213 281.458,209.214 281.917 M147.125 281.451 C 147.331 281.491,147.669 281.491,147.875 281.451 C 148.081 281.411,147.912 281.379,147.500 281.379 C 147.087 281.379,146.919 281.411,147.125 281.451 M244.866 283.702 L 244.833 284.987 243.375 285.043 L 241.917 285.098 243.380 285.132 C 245.081 285.172,245.042 285.212,244.957 283.567 L 244.899 282.417 244.866 283.702 M214.708 282.786 C 214.960 282.824,215.373 282.824,215.625 282.786 C 215.877 282.748,215.671 282.717,215.167 282.717 C 214.662 282.717,214.456 282.748,214.708 282.786 M225.039 284.500 C 225.039 284.821,225.073 284.952,225.115 284.792 C 225.157 284.631,225.157 284.369,225.115 284.208 C 225.073 284.048,225.039 284.179,225.039 284.500 M177.542 284.750 C 177.544 285.117,177.578 285.247,177.618 285.040 C 177.658 284.832,177.656 284.532,177.615 284.373 C 177.573 284.214,177.540 284.383,177.542 284.750 M192.042 284.750 C 192.044 285.117,192.078 285.247,192.118 285.040 C 192.158 284.832,192.156 284.532,192.115 284.373 C 192.073 284.214,192.040 284.383,192.042 284.750 M131.292 284.451 C 131.498 284.491,131.835 284.491,132.042 284.451 C 132.248 284.411,132.079 284.379,131.667 284.379 C 131.254 284.379,131.085 284.411,131.292 284.451 M148.542 285.208 L 148.583 285.750 149.917 285.760 L 151.250 285.770 149.968 285.712 C 148.697 285.654,148.686 285.649,148.593 285.160 C 148.503 284.685,148.502 284.686,148.542 285.208 M213.381 285.290 C 213.912 285.323,214.737 285.323,215.214 285.289 C 215.692 285.256,215.258 285.229,214.250 285.229 C 213.242 285.229,212.851 285.257,213.381 285.290 M175.042 285.615 C 175.202 285.657,175.465 285.657,175.625 285.615 C 175.785 285.573,175.654 285.539,175.333 285.539 C 175.012 285.539,174.881 285.573,175.042 285.615 M137.047 285.789 C 137.485 285.824,138.160 285.823,138.547 285.788 C 138.934 285.754,138.575 285.725,137.750 285.726 C 136.925 285.726,136.609 285.755,137.047 285.789 M166.544 285.786 C 166.797 285.825,167.172 285.824,167.377 285.784 C 167.582 285.744,167.375 285.713,166.917 285.714 C 166.458 285.716,166.291 285.748,166.544 285.786 M144.875 285.953 C 145.127 285.991,145.540 285.991,145.792 285.953 C 146.044 285.915,145.837 285.883,145.333 285.883 C 144.829 285.883,144.623 285.915,144.875 285.953 " stroke="none" fill="#53b655" fill-rule="evenodd"></path></g></svg>