<svg id="svg" version="1.1" xmlns="http://www.w3.org/2000/svg" xmlns:xlink="http://www.w3.org/1999/xlink" width="400" height="400" viewBox="0, 0, 400,400"><g id="svgg"><path id="path0" d="M194.400 165.840 C 189.013 166.983,187.865 175.986,192.775 178.579 C 195.287 179.906,200.548 178.879,199.899 177.189 C 199.780 176.877,199.569 176.928,198.792 177.455 C 196.075 179.299,192.152 178.164,191.163 175.249 C 189.231 169.555,193.647 164.772,198.432 167.376 C 199.770 168.105,200.326 168.056,199.839 167.254 C 199.187 166.180,196.315 165.433,194.400 165.840 M157.067 172.533 L 157.067 179.200 161.067 179.200 C 164.889 179.200,165.067 179.176,165.067 178.667 C 165.067 178.161,164.889 178.133,161.600 178.133 L 158.133 178.133 158.133 172.000 C 158.133 166.044,158.118 165.867,157.600 165.867 C 157.081 165.867,157.067 166.044,157.067 172.533 M171.783 170.867 C 171.879 175.361,171.948 175.978,172.469 176.972 C 174.036 179.959,179.717 180.019,181.452 177.067 C 182.313 175.601,182.459 165.867,181.620 165.867 C 181.081 165.867,181.067 165.986,181.066 170.600 C 181.066 176.879,180.472 178.089,177.278 178.325 C 173.691 178.590,172.959 177.367,172.842 170.914 C 172.754 166.063,172.729 165.867,172.213 165.867 C 171.690 165.867,171.679 165.997,171.783 170.867 M207.733 172.533 C 207.733 178.987,207.750 179.200,208.258 179.200 C 208.747 179.200,208.789 178.980,208.858 176.007 L 208.933 172.813 212.533 176.004 C 214.850 178.057,216.347 179.196,216.733 179.197 C 217.573 179.201,217.707 179.354,213.733 175.763 C 211.753 173.973,210.133 172.423,210.133 172.318 C 210.133 172.213,211.662 170.748,213.531 169.063 C 216.377 166.497,216.831 165.986,216.327 165.914 C 215.875 165.850,214.888 166.589,212.330 168.910 L 208.933 171.990 208.858 168.929 C 208.788 166.086,208.745 165.867,208.258 165.867 C 207.750 165.867,207.733 166.080,207.733 172.533 M224.664 169.665 L 227.200 173.464 227.200 176.332 C 227.200 179.022,227.233 179.200,227.733 179.200 C 228.232 179.200,228.267 179.022,228.267 176.467 L 228.268 173.733 230.415 170.533 C 233.337 166.178,233.497 165.867,232.813 165.867 C 232.423 165.867,231.696 166.764,230.113 169.199 C 228.922 171.032,227.851 172.473,227.733 172.400 C 227.616 172.327,226.596 170.828,225.467 169.067 C 223.775 166.429,223.301 165.867,222.771 165.867 C 222.180 165.867,222.333 166.173,224.664 169.665 M85.686 177.350 C 62.242 179.621,50.120 207.432,64.423 226.133 C 79.704 246.113,111.170 240.317,118.112 216.245 C 123.449 197.738,110.788 179.207,91.526 177.333 C 88.658 177.054,88.755 177.053,85.686 177.350 M91.942 184.002 C 103.663 185.524,112.627 195.735,112.658 207.600 C 112.716 229.337,86.411 239.843,71.442 224.061 C 56.074 207.858,69.757 181.121,91.942 184.002 M85.067 191.099 C 78.053 192.630,72.046 199.575,72.005 206.200 L 72.000 206.933 75.170 206.933 L 78.339 206.933 78.512 205.782 C 79.117 201.747,83.211 197.674,87.201 197.139 L 88.267 196.996 88.267 193.832 L 88.267 190.667 87.533 190.693 C 87.130 190.708,86.020 190.891,85.067 191.099 M89.333 193.832 L 89.333 196.998 90.600 197.168 C 93.513 197.561,96.871 200.022,98.202 202.740 C 98.834 204.031,98.981 204.487,99.355 206.333 C 99.473 206.914,99.576 206.933,102.569 206.933 L 105.661 206.933 105.479 205.667 C 104.388 198.073,99.413 192.559,92.316 191.075 C 89.095 190.401,89.333 190.181,89.333 193.832 M129.067 208.124 L 129.067 222.133 132.267 222.133 L 135.467 222.133 135.484 215.800 C 135.493 212.120,135.594 209.698,135.724 210.018 C 135.846 210.321,137.052 213.176,138.402 216.361 L 140.857 222.153 143.158 222.077 L 145.459 222.000 147.996 215.806 C 149.392 212.400,150.623 209.610,150.733 209.606 C 150.843 209.603,150.933 212.420,150.933 215.867 L 150.933 222.133 154.000 222.133 L 157.067 222.133 157.067 208.133 L 157.067 194.133 154.318 194.133 L 151.569 194.133 147.452 203.600 C 145.187 208.807,143.267 213.067,143.185 213.067 C 143.102 213.067,141.179 208.837,138.910 203.667 L 134.786 194.267 131.926 194.191 L 129.067 194.115 129.067 208.124 M178.408 195.791 C 177.986 196.713,175.056 202.987,171.895 209.733 L 166.148 222.000 169.527 222.075 C 173.729 222.168,173.260 222.441,174.655 219.095 L 175.838 216.257 182.109 216.329 L 188.380 216.400 189.590 219.262 L 190.800 222.125 194.333 222.129 C 196.277 222.131,197.860 222.043,197.853 221.933 C 197.845 221.823,194.931 215.553,191.377 208.000 L 184.915 194.267 182.045 194.191 L 179.175 194.115 178.408 195.791 M204.800 197.067 L 204.800 200.000 208.933 200.000 L 213.067 200.000 213.067 211.067 L 213.067 222.133 216.800 222.133 L 220.533 222.133 220.533 211.067 L 220.533 200.000 224.667 200.000 L 228.800 200.000 228.800 197.067 L 228.800 194.133 216.800 194.133 L 204.800 194.133 204.800 197.067 M86.085 199.621 C 83.667 200.365,81.125 203.320,80.654 205.933 L 80.474 206.933 84.370 206.933 L 88.267 206.933 88.267 203.067 C 88.267 198.703,88.397 198.910,86.085 199.621 M89.333 203.067 L 89.333 206.933 93.327 206.933 L 97.320 206.933 97.167 206.067 C 96.688 203.347,94.514 200.747,91.902 199.769 C 89.218 198.765,89.333 198.617,89.333 203.067 M184.000 206.201 C 184.953 208.433,185.772 210.411,185.820 210.596 C 185.886 210.856,185.044 210.933,182.153 210.933 C 180.089 210.933,178.397 210.843,178.394 210.733 C 178.384 210.374,181.944 202.133,182.108 202.138 C 182.195 202.141,183.047 203.969,184.000 206.201 M72.117 209.267 C 73.197 216.981,79.235 223.047,86.672 223.888 L 88.267 224.069 88.267 221.131 L 88.267 218.193 87.289 218.009 C 82.847 217.176,79.097 213.438,78.516 209.267 L 78.339 208.000 75.139 208.000 L 71.939 208.000 72.117 209.267 M80.533 208.523 C 80.533 211.492,84.059 215.246,87.400 215.834 L 88.267 215.987 88.267 211.993 L 88.267 208.000 84.400 208.000 C 80.736 208.000,80.533 208.027,80.533 208.523 M89.333 211.993 L 89.333 215.987 90.200 215.830 C 93.702 215.196,96.498 212.416,97.203 208.867 L 97.376 208.000 93.355 208.000 L 89.333 208.000 89.333 211.993 M99.188 209.533 C 98.372 213.481,94.118 217.848,91.067 217.870 C 89.368 217.882,89.333 217.947,89.333 221.128 L 89.333 224.061 90.863 223.870 C 98.436 222.924,104.331 217.022,105.450 209.267 L 105.633 208.000 102.569 208.000 L 99.504 208.000 99.188 209.533 " stroke="none" fill="#050606" fill-rule="evenodd"></path><path id="path1" d="M0.000 200.000 L 0.000 400.000 200.000 400.000 L 400.000 400.000 400.000 200.000 L 400.000 0.000 200.000 0.000 L 0.000 0.000 0.000 200.000 M158.338 171.933 L 158.410 178.133 161.872 178.133 C 165.156 178.133,165.333 178.161,165.333 178.667 C 165.333 179.177,165.156 179.200,161.200 179.200 L 157.067 179.200 157.067 172.381 L 157.067 165.563 157.667 165.648 L 158.267 165.733 158.338 171.933 M173.067 170.933 C 173.234 177.459,173.595 178.133,176.921 178.133 C 180.389 178.133,180.863 177.261,181.016 170.600 C 181.123 165.925,181.163 165.600,181.632 165.600 C 182.291 165.600,182.404 175.104,181.763 176.637 C 180.232 180.302,174.154 180.412,172.333 176.808 C 171.774 175.701,171.733 175.277,171.733 170.592 L 171.733 165.563 172.333 165.648 C 172.927 165.732,172.935 165.790,173.067 170.933 M197.894 165.907 C 198.881 166.242,200.269 167.128,200.263 167.418 C 200.245 168.188,199.770 168.250,198.646 167.627 C 194.323 165.232,190.628 167.864,190.997 173.076 C 191.308 177.463,194.751 179.490,198.487 177.484 C 200.526 176.390,201.106 177.352,199.112 178.521 C 194.709 181.101,189.975 178.354,189.657 173.035 C 189.336 167.669,193.208 164.318,197.894 165.907 M208.858 168.724 L 208.933 171.848 212.355 168.724 C 214.746 166.541,215.971 165.600,216.422 165.600 C 217.475 165.600,217.229 165.911,213.579 169.198 C 210.743 171.753,210.158 172.401,210.446 172.668 C 210.641 172.848,212.120 174.166,213.733 175.596 C 218.162 179.521,217.890 179.201,216.793 179.194 C 215.990 179.188,215.415 178.780,212.478 176.127 C 210.614 174.444,209.024 173.067,208.945 173.067 C 208.865 173.067,208.800 174.447,208.800 176.133 L 208.800 179.200 208.133 179.200 L 207.467 179.200 207.467 172.578 C 207.467 165.771,207.487 165.600,208.303 165.600 C 208.734 165.600,208.791 165.920,208.858 168.724 M225.658 169.108 L 227.867 172.482 230.031 169.108 C 231.804 166.343,232.322 165.718,232.897 165.649 C 233.845 165.535,233.924 165.359,231.067 169.740 L 228.533 173.625 228.533 176.412 L 228.533 179.200 227.867 179.200 L 227.200 179.200 227.200 176.491 L 227.200 173.781 224.793 170.093 C 221.880 165.631,221.833 165.529,222.754 165.645 C 223.315 165.716,223.876 166.385,225.658 169.108 M92.800 177.321 C 111.753 179.367,124.288 199.912,117.710 218.149 C 111.581 235.140,91.937 243.211,75.600 235.451 C 55.221 225.771,52.052 197.800,69.733 183.666 C 76.117 178.563,84.063 176.378,92.800 177.321 M84.188 184.411 C 65.768 188.073,58.647 211.075,71.819 224.364 C 86.818 239.494,112.533 228.990,112.533 207.733 C 112.533 192.761,98.843 181.496,84.188 184.411 M91.771 190.817 C 105.268 193.340,110.283 209.548,100.556 219.209 C 92.180 227.528,78.394 225.014,73.463 214.267 C 67.821 201.972,78.471 188.331,91.771 190.817 M256.389 194.275 C 263.641 196.164,267.592 203.595,265.841 212.054 C 262.919 226.166,241.521 226.019,238.536 211.867 C 236.078 200.211,245.089 191.332,256.389 194.275 M136.600 198.067 C 137.550 200.230,139.392 204.430,140.693 207.400 C 141.994 210.370,143.120 212.798,143.196 212.796 C 143.271 212.793,145.142 208.623,147.352 203.529 L 151.371 194.267 154.352 194.191 L 157.333 194.116 157.333 208.125 L 157.333 222.133 154.005 222.133 L 150.677 222.133 150.605 216.099 L 150.533 210.065 148.037 216.099 L 145.541 222.133 143.104 222.131 L 140.667 222.129 138.133 216.075 L 135.600 210.021 135.528 216.077 L 135.457 222.133 132.262 222.133 L 129.067 222.133 129.067 208.133 L 129.067 194.133 131.970 194.133 L 134.873 194.133 136.600 198.067 M190.408 205.667 C 193.387 212.010,196.341 218.313,196.973 219.674 L 198.123 222.148 194.373 222.074 L 190.624 222.000 189.486 219.333 L 188.348 216.667 182.108 216.599 L 175.867 216.530 174.696 219.332 L 173.526 222.133 169.830 222.133 C 167.797 222.133,166.133 222.044,166.133 221.934 C 166.133 221.824,169.036 215.524,172.585 207.934 L 179.036 194.133 182.013 194.133 L 184.991 194.133 190.408 205.667 M229.009 197.133 L 228.933 200.133 224.733 200.207 L 220.533 200.280 220.533 211.207 L 220.533 222.133 216.800 222.133 L 213.067 222.133 213.067 211.207 L 213.067 200.280 208.867 200.207 L 204.667 200.133 204.591 197.133 L 204.516 194.133 216.800 194.133 L 229.084 194.133 229.009 197.133 M287.620 203.563 C 289.867 208.676,291.750 212.906,291.807 212.962 C 291.863 213.019,293.760 208.807,296.021 203.603 L 300.133 194.141 303.000 194.137 L 305.867 194.133 305.867 208.133 L 305.867 222.133 302.671 222.133 L 299.476 222.133 299.405 215.861 L 299.333 209.590 296.767 215.795 L 294.201 222.000 291.810 222.076 L 289.419 222.152 286.937 216.209 C 285.571 212.941,284.352 210.153,284.227 210.013 C 284.101 209.873,284.000 212.522,284.000 215.947 L 284.000 222.133 280.800 222.133 L 277.600 222.133 277.600 208.125 L 277.600 194.116 280.568 194.191 L 283.537 194.267 287.620 203.563 M325.600 208.133 L 325.600 222.133 321.867 222.133 L 318.133 222.133 318.133 208.133 L 318.133 194.133 321.867 194.133 L 325.600 194.133 325.600 208.133 M250.000 199.788 C 246.447 201.030,244.698 206.130,245.969 211.534 C 247.543 218.220,256.293 218.741,258.385 212.273 C 260.826 204.728,256.081 197.663,250.000 199.788 M180.235 206.486 L 178.489 210.533 181.948 210.608 C 183.850 210.649,185.467 210.622,185.541 210.547 C 185.683 210.406,182.412 202.706,182.138 202.536 C 182.051 202.483,181.195 204.260,180.235 206.486 M89.333 228.533 C 89.333 228.680,89.093 228.800,88.800 228.800 C 88.507 228.800,88.267 228.680,88.267 228.533 C 88.267 228.387,88.507 228.267,88.800 228.267 C 89.093 228.267,89.333 228.387,89.333 228.533 " stroke="none" fill="#f3f3f3" fill-rule="evenodd"></path><path id="path2" d="M88.267 193.703 L 88.267 197.006 87.115 197.179 C 83.080 197.784,79.117 201.747,78.512 205.782 L 78.339 206.933 75.170 206.933 C 72.178 206.933,72.000 206.963,72.000 207.467 C 72.000 207.970,72.178 208.000,75.166 208.000 L 78.332 208.000 78.502 209.064 C 79.209 213.486,82.533 216.948,86.991 217.904 L 88.267 218.178 88.267 221.089 C 88.267 223.822,88.299 224.000,88.800 224.000 C 89.301 224.000,89.333 223.822,89.333 221.085 C 89.333 217.863,89.196 218.095,91.319 217.735 C 94.761 217.151,98.484 213.427,99.068 209.985 C 99.429 207.858,99.180 208.000,102.551 208.000 C 105.422 208.000,105.600 207.969,105.600 207.467 C 105.600 206.964,105.422 206.933,102.551 206.933 C 99.200 206.933,99.447 207.065,99.058 205.067 C 98.342 201.392,94.327 197.679,90.506 197.155 L 89.333 196.994 89.333 193.697 C 89.333 190.578,89.305 190.400,88.800 190.400 C 88.295 190.400,88.267 190.578,88.267 193.703 M248.208 194.281 C 235.577 197.343,234.494 217.291,246.726 221.603 C 255.239 224.604,263.936 220.252,265.753 212.083 C 268.363 200.350,259.649 191.507,248.208 194.281 M277.600 208.125 L 277.600 222.133 280.800 222.133 L 284.000 222.133 284.000 215.947 C 284.000 212.325,284.098 209.865,284.237 210.013 C 284.367 210.153,285.593 212.941,286.961 216.209 L 289.448 222.152 291.812 222.076 L 294.177 222.000 296.755 215.755 L 299.333 209.510 299.405 215.822 L 299.476 222.133 302.671 222.133 L 305.867 222.133 305.867 208.124 L 305.867 194.115 303.004 194.191 L 300.142 194.267 296.034 203.675 C 293.775 208.849,291.862 213.017,291.782 212.938 C 291.702 212.858,289.808 208.624,287.572 203.530 L 283.506 194.267 280.553 194.191 L 277.600 194.116 277.600 208.125 M318.133 208.133 L 318.133 222.133 321.867 222.133 L 325.600 222.133 325.600 208.133 L 325.600 194.133 321.867 194.133 L 318.133 194.133 318.133 208.133 M88.267 203.067 L 88.267 206.933 84.400 206.933 C 80.014 206.933,80.168 207.034,80.965 204.695 C 81.843 202.117,85.327 199.268,87.667 199.214 C 88.262 199.200,88.267 199.230,88.267 203.067 M92.772 200.119 C 94.916 201.206,96.670 203.564,97.194 206.067 L 97.376 206.933 93.355 206.933 L 89.333 206.933 89.333 203.033 L 89.333 199.132 90.422 199.306 C 91.021 199.402,92.078 199.768,92.772 200.119 M254.502 199.795 C 259.789 201.374,260.623 212.662,255.694 215.924 C 253.535 217.353,249.948 217.062,247.997 215.299 C 244.841 212.448,244.755 204.082,247.851 201.082 C 249.401 199.579,252.060 199.065,254.502 199.795 M88.267 211.993 L 88.267 215.987 87.400 215.827 C 84.055 215.211,81.156 212.322,80.639 209.089 L 80.465 208.000 84.366 208.000 L 88.267 208.000 88.267 211.993 M97.209 208.981 C 96.573 212.369,93.638 215.240,90.200 215.836 L 89.333 215.987 89.333 211.993 L 89.333 208.000 93.363 208.000 L 97.393 208.000 97.209 208.981 M88.267 228.533 C 88.267 228.680,88.507 228.800,88.800 228.800 C 89.093 228.800,89.333 228.680,89.333 228.533 C 89.333 228.387,89.093 228.267,88.800 228.267 C 88.507 228.267,88.267 228.387,88.267 228.533 " stroke="none" fill="#0a95fa" fill-rule="evenodd"></path><path id="path3" d="M157.528 165.774 C 158.120 165.902,158.124 165.936,158.203 172.018 L 158.282 178.134 158.274 171.933 L 158.267 165.733 157.600 165.690 C 157.022 165.652,157.013 165.663,157.528 165.774 M207.587 165.938 C 207.515 166.124,207.491 169.214,207.533 172.805 L 207.610 179.333 207.672 172.619 L 207.733 165.904 208.333 165.788 L 208.933 165.673 208.325 165.636 C 207.990 165.616,207.658 165.752,207.587 165.938 M222.133 165.703 C 222.133 165.760,222.487 165.858,222.919 165.921 C 223.352 165.985,223.644 165.939,223.570 165.818 C 223.438 165.605,222.133 165.500,222.133 165.703 M232.267 165.702 C 232.267 165.758,232.567 165.862,232.933 165.932 C 233.300 166.002,233.600 165.956,233.600 165.830 C 233.600 165.703,233.300 165.600,232.933 165.600 C 232.567 165.600,232.267 165.646,232.267 165.702 M204.634 197.067 C 204.634 198.753,204.677 199.443,204.730 198.600 C 204.783 197.757,204.783 196.377,204.730 195.533 C 204.677 194.690,204.634 195.380,204.634 197.067 M228.901 197.067 C 228.901 198.753,228.944 199.443,228.997 198.600 C 229.050 197.757,229.050 196.377,228.997 195.533 C 228.944 194.690,228.901 195.380,228.901 197.067 M182.000 210.667 L 178.267 210.823 181.918 210.878 C 184.126 210.912,185.634 210.828,185.733 210.667 C 185.824 210.520,185.861 210.425,185.816 210.455 C 185.770 210.485,184.053 210.581,182.000 210.667 M178.000 216.452 C 183.260 216.642,188.473 216.650,188.359 216.467 C 188.291 216.357,185.452 216.291,182.051 216.321 C 178.650 216.351,176.827 216.410,178.000 216.452 M88.200 224.188 C 88.530 224.252,89.070 224.252,89.400 224.188 C 89.730 224.125,89.460 224.073,88.800 224.073 C 88.140 224.073,87.870 224.125,88.200 224.188 " stroke="none" fill="#989898" fill-rule="evenodd"></path><path id="path4" d="M172.910 170.400 C 172.910 172.967,172.950 174.017,172.999 172.733 C 173.047 171.450,173.047 169.350,172.999 168.067 C 172.950 166.783,172.910 167.833,172.910 170.400 M190.729 172.533 C 190.729 173.047,190.783 173.257,190.850 173.000 C 190.918 172.743,190.918 172.323,190.850 172.067 C 190.783 171.810,190.729 172.020,190.729 172.533 M228.366 176.400 C 228.367 178.013,228.411 178.639,228.464 177.790 C 228.517 176.942,228.517 175.622,228.463 174.857 C 228.409 174.092,228.366 174.787,228.366 176.400 M86.467 177.250 C 86.723 177.318,87.143 177.318,87.400 177.250 C 87.657 177.183,87.447 177.129,86.933 177.129 C 86.420 177.129,86.210 177.183,86.467 177.250 M90.200 177.250 C 90.457 177.318,90.877 177.318,91.133 177.250 C 91.390 177.183,91.180 177.129,90.667 177.129 C 90.153 177.129,89.943 177.183,90.200 177.250 M87.800 183.928 C 88.350 183.985,89.250 183.985,89.800 183.928 C 90.350 183.870,89.900 183.823,88.800 183.823 C 87.700 183.823,87.250 183.870,87.800 183.928 M157.191 208.133 C 157.191 215.907,157.225 219.048,157.267 215.115 C 157.308 211.181,157.308 204.821,157.266 200.981 C 157.225 197.142,157.191 200.360,157.191 208.133 M206.879 200.199 C 208.096 200.248,210.016 200.248,211.146 200.198 C 212.276 200.148,211.280 200.108,208.933 200.108 C 206.587 200.108,205.662 200.149,206.879 200.199 M222.613 200.199 C 223.830 200.248,225.750 200.248,226.879 200.198 C 228.009 200.148,227.013 200.108,224.667 200.108 C 222.320 200.108,221.396 200.149,222.613 200.199 M58.195 205.867 C 58.195 206.380,58.250 206.590,58.317 206.333 C 58.384 206.077,58.384 205.657,58.317 205.400 C 58.250 205.143,58.195 205.353,58.195 205.867 M119.262 205.867 C 119.262 206.380,119.317 206.590,119.384 206.333 C 119.451 206.077,119.451 205.657,119.384 205.400 C 119.317 205.143,119.262 205.353,119.262 205.867 M112.627 207.733 C 112.627 208.980,112.672 209.490,112.729 208.867 C 112.785 208.243,112.785 207.223,112.729 206.600 C 112.672 205.977,112.627 206.487,112.627 207.733 M64.890 207.733 C 64.890 208.833,64.937 209.283,64.994 208.733 C 65.052 208.183,65.052 207.283,64.994 206.733 C 64.937 206.183,64.890 206.633,64.890 207.733 M58.195 209.600 C 58.195 210.113,58.250 210.323,58.317 210.067 C 58.384 209.810,58.384 209.390,58.317 209.133 C 58.250 208.877,58.195 209.087,58.195 209.600 M119.262 209.600 C 119.262 210.113,119.317 210.323,119.384 210.067 C 119.451 209.810,119.451 209.390,119.384 209.133 C 119.317 208.877,119.262 209.087,119.262 209.600 M150.602 213.800 C 150.729 221.572,150.824 222.307,150.879 215.933 C 150.909 212.450,150.843 209.600,150.733 209.600 C 150.623 209.599,150.564 211.489,150.602 213.800 M87.667 231.662 C 88.290 231.718,89.310 231.718,89.933 231.662 C 90.557 231.606,90.047 231.560,88.800 231.560 C 87.553 231.560,87.043 231.606,87.667 231.662 M86.467 238.317 C 86.723 238.384,87.143 238.384,87.400 238.317 C 87.657 238.250,87.447 238.195,86.933 238.195 C 86.420 238.195,86.210 238.250,86.467 238.317 M90.200 238.317 C 90.457 238.384,90.877 238.384,91.133 238.317 C 91.390 238.250,91.180 238.195,90.667 238.195 C 90.153 238.195,89.943 238.250,90.200 238.317 " stroke="none" fill="#7c7c7c" fill-rule="evenodd"></path></g></svg>